solid OpenSCAD_Model
  facet normal -0 0 -1
    outer loop
      vertex -19.7317 36.7413 0
      vertex -23.1519 27.3443 0
      vertex -20.6714 37.0833 0
    endloop
  endfacet
  facet normal 0 0 -1
    outer loop
      vertex -20.6714 37.0833 0
      vertex -23.1519 27.3443 0
      vertex -24.4336 26.7467 0
    endloop
  endfacet
  facet normal 0 0 -1
    outer loop
      vertex -24.4336 26.7467 0
      vertex -23.1519 27.3443 0
      vertex -15.9764 23.6685 0
    endloop
  endfacet
  facet normal 0 0 -1
    outer loop
      vertex -23.1519 27.3443 0
      vertex -0.226028 19 0
      vertex -15.9764 23.6685 0
    endloop
  endfacet
  facet normal 0 -0 -1
    outer loop
      vertex -15.9764 23.6685 0
      vertex -0.226028 19 0
      vertex -17.6756 19 0
    endloop
  endfacet
  facet normal 0 0 -1
    outer loop
      vertex -17.6756 19 0
      vertex -18 15.8916 0
      vertex -18 18.1086 0
    endloop
  endfacet
  facet normal 0 0 -1
    outer loop
      vertex -18 19 0
      vertex -17.6756 19 0
      vertex -18 18.1086 0
    endloop
  endfacet
  facet normal 0 -0 -1
    outer loop
      vertex -18 18.1086 0
      vertex -18 15.8916 0
      vertex -18.7125 16.151 0
    endloop
  endfacet
  facet normal 0 -0 -1
    outer loop
      vertex -17.6756 19 0
      vertex -0.226028 19 0
      vertex -18 15.8916 0
    endloop
  endfacet
  facet normal 0 0 -1
    outer loop
      vertex -18 15.8916 0
      vertex -17 10 0
      vertex -18 10 0
    endloop
  endfacet
  facet normal 0 0 -1
    outer loop
      vertex -18 10 0
      vertex -19 0 0
      vertex -20 0 0
    endloop
  endfacet
  facet normal 0 0 -1
    outer loop
      vertex -18 15.8916 0
      vertex -0.226028 19 0
      vertex -17 10 0
    endloop
  endfacet
  facet normal 0 0 -1
    outer loop
      vertex -17 10 0
      vertex -0.226028 19 0
      vertex 0 10 0
    endloop
  endfacet
  facet normal 0 -0 -1
    outer loop
      vertex -18 10 0
      vertex -17 10 0
      vertex -19 0 0
    endloop
  endfacet
  facet normal 0 0 -1
    outer loop
      vertex 0 10 0
      vertex 1 17.6823 0
      vertex 1 0 0
    endloop
  endfacet
  facet normal 0 0 -1
    outer loop
      vertex 0 0 0
      vertex 0 10 0
      vertex 1 0 0
    endloop
  endfacet
  facet normal 0 0 -1
    outer loop
      vertex 0 10 0
      vertex -0.226028 19 0
      vertex 1 17.6823 0
    endloop
  endfacet
  facet normal 0 0 -1
    outer loop
      vertex 1 17.6823 0
      vertex -0.226028 19 0
      vertex 0.415436 19 0
    endloop
  endfacet
  facet normal 0 0 -1
    outer loop
      vertex 1 17.6823 0
      vertex 0.415436 19 0
      vertex 4.70029 27.8488 0
    endloop
  endfacet
  facet normal 0 0 -1
    outer loop
      vertex 0.415436 19 0
      vertex 3.76059 28.1908 0
      vertex 4.70029 27.8488 0
    endloop
  endfacet
  facet normal 0 0 1
    outer loop
      vertex -20.6714 37.0833 30
      vertex -23.1519 27.3443 30
      vertex -19.7317 36.7413 30
    endloop
  endfacet
  facet normal 0 0 1
    outer loop
      vertex -24.4336 26.7467 30
      vertex -23.1519 27.3443 30
      vertex -20.6714 37.0833 30
    endloop
  endfacet
  facet normal 0 0 1
    outer loop
      vertex -15.9764 23.6685 30
      vertex -23.1519 27.3443 30
      vertex -24.4336 26.7467 30
    endloop
  endfacet
  facet normal -0 -0 1
    outer loop
      vertex -15.9764 23.6685 30
      vertex -0.226028 19 30
      vertex -23.1519 27.3443 30
    endloop
  endfacet
  facet normal 0 0 1
    outer loop
      vertex -17.6756 19 30
      vertex -0.226028 19 30
      vertex -15.9764 23.6685 30
    endloop
  endfacet
  facet normal -0 0 1
    outer loop
      vertex -18 18.1086 30
      vertex -18 15.8916 30
      vertex -17.6756 19 30
    endloop
  endfacet
  facet normal 0 0 1
    outer loop
      vertex -18 18.1086 30
      vertex -17.6756 19 30
      vertex -18 19 30
    endloop
  endfacet
  facet normal -0 0 1
    outer loop
      vertex -18.7125 16.151 30
      vertex -18 15.8916 30
      vertex -18 18.1086 30
    endloop
  endfacet
  facet normal 0 0 1
    outer loop
      vertex -18 15.8916 30
      vertex -0.226028 19 30
      vertex -17.6756 19 30
    endloop
  endfacet
  facet normal 0 0 1
    outer loop
      vertex -18 10 30
      vertex -17 10 30
      vertex -18 15.8916 30
    endloop
  endfacet
  facet normal 0 0 1
    outer loop
      vertex -20 0 30
      vertex -19 0 30
      vertex -18 10 30
    endloop
  endfacet
  facet normal 0 -0 1
    outer loop
      vertex -17 10 30
      vertex -0.226028 19 30
      vertex -18 15.8916 30
    endloop
  endfacet
  facet normal 0 0 1
    outer loop
      vertex 0 10 30
      vertex -0.226028 19 30
      vertex -17 10 30
    endloop
  endfacet
  facet normal 0 0 1
    outer loop
      vertex -19 0 30
      vertex -17 10 30
      vertex -18 10 30
    endloop
  endfacet
  facet normal 0 -0 1
    outer loop
      vertex 1 0 30
      vertex 1 17.6823 30
      vertex 0 10 30
    endloop
  endfacet
  facet normal 0 0 1
    outer loop
      vertex 1 0 30
      vertex 0 10 30
      vertex 0 0 30
    endloop
  endfacet
  facet normal 0 0 1
    outer loop
      vertex 1 17.6823 30
      vertex -0.226028 19 30
      vertex 0 10 30
    endloop
  endfacet
  facet normal 0 0 1
    outer loop
      vertex 0.415436 19 30
      vertex -0.226028 19 30
      vertex 1 17.6823 30
    endloop
  endfacet
  facet normal 0 0 1
    outer loop
      vertex 4.70029 27.8488 30
      vertex 0.415436 19 30
      vertex 1 17.6823 30
    endloop
  endfacet
  facet normal 0 0 1
    outer loop
      vertex 4.70029 27.8488 30
      vertex 3.76059 28.1908 30
      vertex 0.415436 19 30
    endloop
  endfacet
  facet normal 0.939694 -0.342018 0
    outer loop
      vertex -19.7317 36.7413 0
      vertex -23.1519 27.3443 30
      vertex -23.1519 27.3443 0
    endloop
  endfacet
  facet normal 0.939694 -0.342018 0
    outer loop
      vertex -19.7317 36.7413 0
      vertex -19.7317 36.7413 30
      vertex -23.1519 27.3443 30
    endloop
  endfacet
  facet normal 0.342 0.9397 0
    outer loop
      vertex -20.6714 37.0833 0
      vertex -19.7317 36.7413 30
      vertex -19.7317 36.7413 0
    endloop
  endfacet
  facet normal 0.342 0.9397 -0
    outer loop
      vertex -20.6714 37.0833 0
      vertex -20.6714 37.0833 30
      vertex -19.7317 36.7413 30
    endloop
  endfacet
  facet normal -0.939693 0.342019 0
    outer loop
      vertex -24.4336 26.7467 0
      vertex -20.6714 37.0833 30
      vertex -20.6714 37.0833 0
    endloop
  endfacet
  facet normal -0.939693 0.342019 0
    outer loop
      vertex -24.4336 26.7467 0
      vertex -24.4336 26.7467 30
      vertex -20.6714 37.0833 30
    endloop
  endfacet
  facet normal -0.342023 -0.939692 0
    outer loop
      vertex -15.9764 23.6685 0
      vertex -24.4336 26.7467 30
      vertex -24.4336 26.7467 0
    endloop
  endfacet
  facet normal -0.342023 -0.939692 0
    outer loop
      vertex -15.9764 23.6685 0
      vertex -15.9764 23.6685 30
      vertex -24.4336 26.7467 30
    endloop
  endfacet
  facet normal -0.939692 0.342021 0
    outer loop
      vertex -17.6756 19 0
      vertex -15.9764 23.6685 30
      vertex -15.9764 23.6685 0
    endloop
  endfacet
  facet normal -0.939692 0.342021 0
    outer loop
      vertex -17.6756 19 0
      vertex -17.6756 19 30
      vertex -15.9764 23.6685 30
    endloop
  endfacet
  facet normal 0 1 0
    outer loop
      vertex -18 19 0
      vertex -17.6756 19 30
      vertex -17.6756 19 0
    endloop
  endfacet
  facet normal 0 1 0
    outer loop
      vertex -18 19 0
      vertex -18 19 30
      vertex -17.6756 19 30
    endloop
  endfacet
  facet normal -1 0 0
    outer loop
      vertex -18 18.1086 0
      vertex -18 19 30
      vertex -18 19 0
    endloop
  endfacet
  facet normal -1 0 0
    outer loop
      vertex -18 18.1086 0
      vertex -18 18.1086 30
      vertex -18 19 30
    endloop
  endfacet
  facet normal -0.939694 0.342017 0
    outer loop
      vertex -18.7125 16.151 0
      vertex -18 18.1086 30
      vertex -18 18.1086 0
    endloop
  endfacet
  facet normal -0.939694 0.342017 0
    outer loop
      vertex -18.7125 16.151 0
      vertex -18.7125 16.151 30
      vertex -18 18.1086 30
    endloop
  endfacet
  facet normal -0.342103 -0.939662 0
    outer loop
      vertex -18 15.8916 0
      vertex -18.7125 16.151 30
      vertex -18.7125 16.151 0
    endloop
  endfacet
  facet normal -0.342103 -0.939662 0
    outer loop
      vertex -18 15.8916 0
      vertex -18 15.8916 30
      vertex -18.7125 16.151 30
    endloop
  endfacet
  facet normal -1 0 0
    outer loop
      vertex -18 10 0
      vertex -18 15.8916 30
      vertex -18 15.8916 0
    endloop
  endfacet
  facet normal -1 0 0
    outer loop
      vertex -18 10 0
      vertex -18 10 30
      vertex -18 15.8916 30
    endloop
  endfacet
  facet normal -0.980581 0.196116 0
    outer loop
      vertex -20 0 0
      vertex -18 10 30
      vertex -18 10 0
    endloop
  endfacet
  facet normal -0.980581 0.196116 0
    outer loop
      vertex -20 0 0
      vertex -20 0 30
      vertex -18 10 30
    endloop
  endfacet
  facet normal 0 -1 0
    outer loop
      vertex -19 0 0
      vertex -20 0 30
      vertex -20 0 0
    endloop
  endfacet
  facet normal 0 -1 0
    outer loop
      vertex -19 0 0
      vertex -19 0 30
      vertex -20 0 30
    endloop
  endfacet
  facet normal 0.980581 -0.196116 0
    outer loop
      vertex -17 10 0
      vertex -19 0 30
      vertex -19 0 0
    endloop
  endfacet
  facet normal 0.980581 -0.196116 0
    outer loop
      vertex -17 10 0
      vertex -17 10 30
      vertex -19 0 30
    endloop
  endfacet
  facet normal 0 -1 0
    outer loop
      vertex 0 10 0
      vertex -17 10 30
      vertex -17 10 0
    endloop
  endfacet
  facet normal 0 -1 0
    outer loop
      vertex 0 10 0
      vertex 0 10 30
      vertex -17 10 30
    endloop
  endfacet
  facet normal -1 0 0
    outer loop
      vertex 0 0 0
      vertex 0 10 30
      vertex 0 10 0
    endloop
  endfacet
  facet normal -1 0 0
    outer loop
      vertex 0 0 0
      vertex 0 0 30
      vertex 0 10 30
    endloop
  endfacet
  facet normal 0 -1 0
    outer loop
      vertex 1 0 0
      vertex 0 0 30
      vertex 0 0 0
    endloop
  endfacet
  facet normal 0 -1 0
    outer loop
      vertex 1 0 0
      vertex 1 0 30
      vertex 0 0 30
    endloop
  endfacet
  facet normal 1 0 0
    outer loop
      vertex 1 17.6823 0
      vertex 1 0 30
      vertex 1 0 0
    endloop
  endfacet
  facet normal 1 0 -0
    outer loop
      vertex 1 17.6823 0
      vertex 1 17.6823 30
      vertex 1 0 30
    endloop
  endfacet
  facet normal 0.939693 -0.342019 0
    outer loop
      vertex 4.70029 27.8488 0
      vertex 1 17.6823 30
      vertex 1 17.6823 0
    endloop
  endfacet
  facet normal 0.939693 -0.342019 0
    outer loop
      vertex 4.70029 27.8488 0
      vertex 4.70029 27.8488 30
      vertex 1 17.6823 30
    endloop
  endfacet
  facet normal 0.342 0.9397 0
    outer loop
      vertex 3.76059 28.1908 0
      vertex 4.70029 27.8488 30
      vertex 4.70029 27.8488 0
    endloop
  endfacet
  facet normal 0.342 0.9397 -0
    outer loop
      vertex 3.76059 28.1908 0
      vertex 3.76059 28.1908 30
      vertex 4.70029 27.8488 30
    endloop
  endfacet
  facet normal -0.939693 0.342018 0
    outer loop
      vertex 0.415436 19 0
      vertex 3.76059 28.1908 30
      vertex 3.76059 28.1908 0
    endloop
  endfacet
  facet normal -0.939693 0.342018 0
    outer loop
      vertex 0.415436 19 0
      vertex 0.415436 19 30
      vertex 3.76059 28.1908 30
    endloop
  endfacet
  facet normal 0 1 0
    outer loop
      vertex -0.226028 19 0
      vertex 0.415436 19 30
      vertex 0.415436 19 0
    endloop
  endfacet
  facet normal 0 1 0
    outer loop
      vertex -0.226028 19 0
      vertex -0.226028 19 30
      vertex 0.415436 19 30
    endloop
  endfacet
  facet normal 0.342019 0.939693 0
    outer loop
      vertex -23.1519 27.3443 0
      vertex -0.226028 19 30
      vertex -0.226028 19 0
    endloop
  endfacet
  facet normal 0.342019 0.939693 -0
    outer loop
      vertex -23.1519 27.3443 0
      vertex -23.1519 27.3443 30
      vertex -0.226028 19 30
    endloop
  endfacet
endsolid OpenSCAD_Model
