solid OpenSCAD_Model
  facet normal 1 -0 0
    outer loop
      vertex 36.5 3 41.5
      vertex 36.5 9 8.5
      vertex 36.5 9 41.5
    endloop
  endfacet
  facet normal 1 0 0
    outer loop
      vertex 36.5 9 8.5
      vertex 36.5 3 41.5
      vertex 36.5 3 8.5
    endloop
  endfacet
  facet normal 0 -1 0
    outer loop
      vertex 3.5 3 41.5
      vertex 7 3 38
      vertex 36.5 3 41.5
    endloop
  endfacet
  facet normal 0 -1 0
    outer loop
      vertex 3.5 3 41.5
      vertex 7 3 12
      vertex 7 3 38
    endloop
  endfacet
  facet normal 0 -1 -0
    outer loop
      vertex 7 3 12
      vertex 3.5 3 8.5
      vertex 33 3 12
    endloop
  endfacet
  facet normal 0 -1 0
    outer loop
      vertex 3.5 3 8.5
      vertex 7 3 12
      vertex 3.5 3 41.5
    endloop
  endfacet
  facet normal 0 -1 0
    outer loop
      vertex 33 3 38
      vertex 36.5 3 41.5
      vertex 7 3 38
    endloop
  endfacet
  facet normal 0 -1 0
    outer loop
      vertex 33 3 12
      vertex 36.5 3 41.5
      vertex 33 3 38
    endloop
  endfacet
  facet normal 0 -1 0
    outer loop
      vertex 33 3 12
      vertex 36.5 3 8.5
      vertex 36.5 3 41.5
    endloop
  endfacet
  facet normal 0 -1 0
    outer loop
      vertex 36.5 3 8.5
      vertex 33 3 12
      vertex 3.5 3 8.5
    endloop
  endfacet
  facet normal 0 1 -0
    outer loop
      vertex 36.5 9 8.5
      vertex 3.5 9 41.5
      vertex 36.5 9 41.5
    endloop
  endfacet
  facet normal 0 1 0
    outer loop
      vertex 3.5 9 41.5
      vertex 36.5 9 8.5
      vertex 3.5 9 8.5
    endloop
  endfacet
  facet normal -1 0 0
    outer loop
      vertex 3.5 3 8.5
      vertex 3.5 9 41.5
      vertex 3.5 9 8.5
    endloop
  endfacet
  facet normal -1 -0 0
    outer loop
      vertex 3.5 9 41.5
      vertex 3.5 3 8.5
      vertex 3.5 3 41.5
    endloop
  endfacet
  facet normal -0 0 1
    outer loop
      vertex 3.5 9 41.5
      vertex 36.5 3 41.5
      vertex 36.5 9 41.5
    endloop
  endfacet
  facet normal 0 0 1
    outer loop
      vertex 36.5 3 41.5
      vertex 3.5 9 41.5
      vertex 3.5 3 41.5
    endloop
  endfacet
  facet normal 0 0 -1
    outer loop
      vertex 3.5 3 8.5
      vertex 36.5 9 8.5
      vertex 36.5 3 8.5
    endloop
  endfacet
  facet normal -0 0 -1
    outer loop
      vertex 36.5 9 8.5
      vertex 3.5 3 8.5
      vertex 3.5 9 8.5
    endloop
  endfacet
  facet normal 1 -0 0
    outer loop
      vertex 33 0 38
      vertex 33 3 12
      vertex 33 3 38
    endloop
  endfacet
  facet normal 1 0 0
    outer loop
      vertex 33 3 12
      vertex 33 0 38
      vertex 33 0 12
    endloop
  endfacet
  facet normal 0 1 0
    outer loop
      vertex 40 0 50
      vertex 33 0 38
      vertex 0 0 50
    endloop
  endfacet
  facet normal 0 1 0
    outer loop
      vertex 40 0 50
      vertex 33 0 12
      vertex 33 0 38
    endloop
  endfacet
  facet normal 0 1 0
    outer loop
      vertex 33 0 12
      vertex 40 0 0
      vertex 7 0 12
    endloop
  endfacet
  facet normal 0 1 -0
    outer loop
      vertex 40 0 0
      vertex 33 0 12
      vertex 40 0 50
    endloop
  endfacet
  facet normal 0 1 -0
    outer loop
      vertex 7 0 38
      vertex 0 0 50
      vertex 33 0 38
    endloop
  endfacet
  facet normal 0 1 -0
    outer loop
      vertex 7 0 12
      vertex 0 0 50
      vertex 7 0 38
    endloop
  endfacet
  facet normal 0 1 0
    outer loop
      vertex 7 0 12
      vertex 0 0 0
      vertex 0 0 50
    endloop
  endfacet
  facet normal 0 1 0
    outer loop
      vertex 0 0 0
      vertex 7 0 12
      vertex 40 0 0
    endloop
  endfacet
  facet normal -1 0 0
    outer loop
      vertex 7 0 12
      vertex 7 3 38
      vertex 7 3 12
    endloop
  endfacet
  facet normal -1 -0 0
    outer loop
      vertex 7 3 38
      vertex 7 0 12
      vertex 7 0 38
    endloop
  endfacet
  facet normal -0 0 1
    outer loop
      vertex 7 3 38
      vertex 33 0 38
      vertex 33 3 38
    endloop
  endfacet
  facet normal 0 0 1
    outer loop
      vertex 33 0 38
      vertex 7 3 38
      vertex 7 0 38
    endloop
  endfacet
  facet normal 0 0 -1
    outer loop
      vertex 7 0 12
      vertex 33 3 12
      vertex 33 0 12
    endloop
  endfacet
  facet normal -0 0 -1
    outer loop
      vertex 33 3 12
      vertex 7 0 12
      vertex 7 3 12
    endloop
  endfacet
  facet normal 0 -1 0
    outer loop
      vertex 6 -3 46.3541
      vertex 34 -3 49.6459
      vertex 6 -3 49.6459
    endloop
  endfacet
  facet normal 0 -1 -0
    outer loop
      vertex 34 -3 49.6459
      vertex 6 -3 46.3541
      vertex 34 -3 46.3541
    endloop
  endfacet
  facet normal 0 -1 0
    outer loop
      vertex 6 -3 49.6459
      vertex 2.5 -3 50
      vertex 3 -3 49.6459
    endloop
  endfacet
  facet normal 0 -1 0
    outer loop
      vertex 2.5 -3 50
      vertex 3 -3 46.3541
      vertex 3 -3 49.6459
    endloop
  endfacet
  facet normal 0 -1 0
    outer loop
      vertex 3.5 -3 41.5
      vertex 6 -3 46.3541
      vertex 3 -3 46.3541
    endloop
  endfacet
  facet normal 0 -1 -0
    outer loop
      vertex 6 -3 46.3541
      vertex 3.5 -3 41.5
      vertex 34 -3 46.3541
    endloop
  endfacet
  facet normal 0 -1 0
    outer loop
      vertex 36.5 -3 41.5
      vertex 34 -3 46.3541
      vertex 3.5 -3 41.5
    endloop
  endfacet
  facet normal 0 -1 0
    outer loop
      vertex 2.5 -3 50
      vertex 3.5 -3 41.5
      vertex 3 -3 46.3541
    endloop
  endfacet
  facet normal 0 -1 0
    outer loop
      vertex 2.5 -3 5
      vertex 3.5 -3 41.5
      vertex 2.5 -3 50
    endloop
  endfacet
  facet normal 0 -1 -0
    outer loop
      vertex 3.5 -3 8.5
      vertex 2.5 -3 5
      vertex 36.5 -3 8.5
    endloop
  endfacet
  facet normal 0 -1 -0
    outer loop
      vertex 3.5 -3 41.5
      vertex 2.5 -3 5
      vertex 3.5 -3 8.5
    endloop
  endfacet
  facet normal 0 -1 0
    outer loop
      vertex 2.5 -3 50
      vertex 6 -3 49.6459
      vertex 37.5 -3 50
    endloop
  endfacet
  facet normal 0 -1 0
    outer loop
      vertex 34 -3 49.6459
      vertex 37.5 -3 50
      vertex 6 -3 49.6459
    endloop
  endfacet
  facet normal 0 -1 0
    outer loop
      vertex 37 -3 49.6459
      vertex 37.5 -3 50
      vertex 34 -3 49.6459
    endloop
  endfacet
  facet normal 0 -1 0
    outer loop
      vertex 37 -3 46.3541
      vertex 37.5 -3 50
      vertex 37 -3 49.6459
    endloop
  endfacet
  facet normal 0 -1 0
    outer loop
      vertex 34 -3 46.3541
      vertex 36.5 -3 41.5
      vertex 37 -3 46.3541
    endloop
  endfacet
  facet normal 0 -1 0
    outer loop
      vertex 36.5 -3 41.5
      vertex 37.5 -3 50
      vertex 37 -3 46.3541
    endloop
  endfacet
  facet normal 0 -1 0
    outer loop
      vertex 37.5 -3 5
      vertex 36.5 -3 41.5
      vertex 36.5 -3 8.5
    endloop
  endfacet
  facet normal 0 -1 0
    outer loop
      vertex 36.5 -3 41.5
      vertex 37.5 -3 5
      vertex 37.5 -3 50
    endloop
  endfacet
  facet normal 0 -1 0
    outer loop
      vertex 37.5 -3 5
      vertex 36.5 -3 8.5
      vertex 2.5 -3 5
    endloop
  endfacet
  facet normal 0 -1 0
    outer loop
      vertex 3.5 -3 8.5
      vertex 36.5 -3 41.5
      vertex 3.5 -3 41.5
    endloop
  endfacet
  facet normal 0 -1 -0
    outer loop
      vertex 36.5 -3 41.5
      vertex 3.5 -3 8.5
      vertex 36.5 -3 8.5
    endloop
  endfacet
  facet normal 1 -0 0
    outer loop
      vertex 40 -11.7 50
      vertex 40 0 0
      vertex 40 0 50
    endloop
  endfacet
  facet normal 1 0 0
    outer loop
      vertex 40 0 0
      vertex 40 -11.7 50
      vertex 40 -11.7 0
    endloop
  endfacet
  facet normal 0 -1 0
    outer loop
      vertex 0 -11.7 50
      vertex 6.5 -11.7 5
      vertex 6.5 -11.7 50
    endloop
  endfacet
  facet normal 0 -1 -0
    outer loop
      vertex 6.5 -11.7 5
      vertex 0 -11.7 0
      vertex 33.5 -11.7 5
    endloop
  endfacet
  facet normal 0 -1 0
    outer loop
      vertex 0 -11.7 0
      vertex 6.5 -11.7 5
      vertex 0 -11.7 50
    endloop
  endfacet
  facet normal 0 -1 0
    outer loop
      vertex 33.5 -11.7 5
      vertex 40 -11.7 50
      vertex 33.5 -11.7 50
    endloop
  endfacet
  facet normal 0 -1 0
    outer loop
      vertex 33.5 -11.7 5
      vertex 40 -11.7 0
      vertex 40 -11.7 50
    endloop
  endfacet
  facet normal 0 -1 0
    outer loop
      vertex 40 -11.7 0
      vertex 33.5 -11.7 5
      vertex 0 -11.7 0
    endloop
  endfacet
  facet normal -1 0 0
    outer loop
      vertex 0 -11.7 0
      vertex 0 0 50
      vertex 0 0 0
    endloop
  endfacet
  facet normal -1 -0 0
    outer loop
      vertex 0 0 50
      vertex 0 -11.7 0
      vertex 0 -11.7 50
    endloop
  endfacet
  facet normal 0 0 1
    outer loop
      vertex 40 0 50
      vertex 37.5 -3 50
      vertex 40 -11.7 50
    endloop
  endfacet
  facet normal 0 0 1
    outer loop
      vertex 40 0 50
      vertex 2.5 -3 50
      vertex 37.5 -3 50
    endloop
  endfacet
  facet normal 0 0 1
    outer loop
      vertex 0 -11.7 50
      vertex 2.5 -3 50
      vertex 0 0 50
    endloop
  endfacet
  facet normal -0 0 1
    outer loop
      vertex 0 0 50
      vertex 2.5 -3 50
      vertex 40 0 50
    endloop
  endfacet
  facet normal -0 0 1
    outer loop
      vertex 37.5 -10.2 50
      vertex 40 -11.7 50
      vertex 37.5 -3 50
    endloop
  endfacet
  facet normal 0 0 1
    outer loop
      vertex 33.5 -11.7 50
      vertex 37.5 -10.2 50
      vertex 33.5 -10.2 50
    endloop
  endfacet
  facet normal 0 0 1
    outer loop
      vertex 37.5 -10.2 50
      vertex 33.5 -11.7 50
      vertex 40 -11.7 50
    endloop
  endfacet
  facet normal -0 0 1
    outer loop
      vertex 2.5 -10.2 50
      vertex 6.5 -11.7 50
      vertex 6.5 -10.2 50
    endloop
  endfacet
  facet normal 0 0 1
    outer loop
      vertex 2.5 -10.2 50
      vertex 0 -11.7 50
      vertex 6.5 -11.7 50
    endloop
  endfacet
  facet normal 0 0 1
    outer loop
      vertex 2.5 -3 50
      vertex 0 -11.7 50
      vertex 2.5 -10.2 50
    endloop
  endfacet
  facet normal 0 0 -1
    outer loop
      vertex 0 -11.7 0
      vertex 40 0 0
      vertex 40 -11.7 0
    endloop
  endfacet
  facet normal -0 0 -1
    outer loop
      vertex 40 0 0
      vertex 0 -11.7 0
      vertex 0 0 0
    endloop
  endfacet
  facet normal -1 0 0
    outer loop
      vertex 37.5 -10.2 5
      vertex 37.5 -3 50
      vertex 37.5 -3 5
    endloop
  endfacet
  facet normal -1 -0 0
    outer loop
      vertex 37.5 -3 50
      vertex 37.5 -10.2 5
      vertex 37.5 -10.2 50
    endloop
  endfacet
  facet normal 0 1 0
    outer loop
      vertex 6.5 -10.2 50
      vertex 6 -10.2 49.6459
      vertex 2.5 -10.2 50
    endloop
  endfacet
  facet normal 0 1 0
    outer loop
      vertex 6.5 -10.2 50
      vertex 6 -10.2 46.3541
      vertex 6 -10.2 49.6459
    endloop
  endfacet
  facet normal 0 1 0
    outer loop
      vertex 6 -10.2 46.3541
      vertex 6.5 -10.2 5
      vertex 3 -10.2 46.3541
    endloop
  endfacet
  facet normal 0 1 -0
    outer loop
      vertex 6.5 -10.2 5
      vertex 6 -10.2 46.3541
      vertex 6.5 -10.2 50
    endloop
  endfacet
  facet normal 0 1 -0
    outer loop
      vertex 3 -10.2 49.6459
      vertex 2.5 -10.2 50
      vertex 6 -10.2 49.6459
    endloop
  endfacet
  facet normal 0 1 -0
    outer loop
      vertex 3 -10.2 46.3541
      vertex 2.5 -10.2 50
      vertex 3 -10.2 49.6459
    endloop
  endfacet
  facet normal 0 1 0
    outer loop
      vertex 2.5 -10.2 5
      vertex 3 -10.2 46.3541
      vertex 6.5 -10.2 5
    endloop
  endfacet
  facet normal 0 1 0
    outer loop
      vertex 3 -10.2 46.3541
      vertex 2.5 -10.2 5
      vertex 2.5 -10.2 50
    endloop
  endfacet
  facet normal 0 1 0
    outer loop
      vertex 37.5 -10.2 50
      vertex 37 -10.2 49.6459
      vertex 33.5 -10.2 50
    endloop
  endfacet
  facet normal 0 1 0
    outer loop
      vertex 37.5 -10.2 50
      vertex 37 -10.2 46.3541
      vertex 37 -10.2 49.6459
    endloop
  endfacet
  facet normal 0 1 0
    outer loop
      vertex 37 -10.2 46.3541
      vertex 37.5 -10.2 5
      vertex 34 -10.2 46.3541
    endloop
  endfacet
  facet normal 0 1 -0
    outer loop
      vertex 37.5 -10.2 5
      vertex 37 -10.2 46.3541
      vertex 37.5 -10.2 50
    endloop
  endfacet
  facet normal 0 1 -0
    outer loop
      vertex 34 -10.2 49.6459
      vertex 33.5 -10.2 50
      vertex 37 -10.2 49.6459
    endloop
  endfacet
  facet normal 0 1 -0
    outer loop
      vertex 34 -10.2 46.3541
      vertex 33.5 -10.2 50
      vertex 34 -10.2 49.6459
    endloop
  endfacet
  facet normal 0 1 0
    outer loop
      vertex 33.5 -10.2 5
      vertex 34 -10.2 46.3541
      vertex 37.5 -10.2 5
    endloop
  endfacet
  facet normal 0 1 0
    outer loop
      vertex 34 -10.2 46.3541
      vertex 33.5 -10.2 5
      vertex 33.5 -10.2 50
    endloop
  endfacet
  facet normal 1 -0 0
    outer loop
      vertex 2.5 -10.2 50
      vertex 2.5 -3 5
      vertex 2.5 -3 50
    endloop
  endfacet
  facet normal 1 0 0
    outer loop
      vertex 2.5 -3 5
      vertex 2.5 -10.2 50
      vertex 2.5 -10.2 5
    endloop
  endfacet
  facet normal 0 0 1
    outer loop
      vertex 37.5 -3 5
      vertex 33.5 -10.2 5
      vertex 37.5 -10.2 5
    endloop
  endfacet
  facet normal 0 0 1
    outer loop
      vertex 33.5 -10.2 5
      vertex 6.5 -10.2 5
      vertex 33.5 -11.7 5
    endloop
  endfacet
  facet normal 0 0 1
    outer loop
      vertex 37.5 -3 5
      vertex 6.5 -10.2 5
      vertex 33.5 -10.2 5
    endloop
  endfacet
  facet normal -0 0 1
    outer loop
      vertex 2.5 -3 5
      vertex 6.5 -10.2 5
      vertex 37.5 -3 5
    endloop
  endfacet
  facet normal 0 0 1
    outer loop
      vertex 6.5 -10.2 5
      vertex 2.5 -3 5
      vertex 2.5 -10.2 5
    endloop
  endfacet
  facet normal 0 0 1
    outer loop
      vertex 33.5 -11.7 5
      vertex 6.5 -10.2 5
      vertex 6.5 -11.7 5
    endloop
  endfacet
  facet normal -1 0 0
    outer loop
      vertex 33.5 -11.7 5
      vertex 33.5 -10.2 50
      vertex 33.5 -10.2 5
    endloop
  endfacet
  facet normal -1 -0 0
    outer loop
      vertex 33.5 -10.2 50
      vertex 33.5 -11.7 5
      vertex 33.5 -11.7 50
    endloop
  endfacet
  facet normal 1 -0 0
    outer loop
      vertex 6.5 -11.7 50
      vertex 6.5 -10.2 5
      vertex 6.5 -10.2 50
    endloop
  endfacet
  facet normal 1 0 0
    outer loop
      vertex 6.5 -10.2 5
      vertex 6.5 -11.7 50
      vertex 6.5 -11.7 5
    endloop
  endfacet
  facet normal 0 -0.980175 0.198133
    outer loop
      vertex 3 -3.12181 49.0433
      vertex 6 -3 49.6459
      vertex 3 -3 49.6459
    endloop
  endfacet
  facet normal 0 -0.980175 0.198133
    outer loop
      vertex 6 -3 49.6459
      vertex 3 -3.12181 49.0433
      vertex 6 -3.12181 49.0433
    endloop
  endfacet
  facet normal 0 -0.99503 -0.0995747
    outer loop
      vertex 3 -3.12181 46.9567
      vertex 6 -3.1913 47.6511
      vertex 3 -3.1913 47.6511
    endloop
  endfacet
  facet normal 0 -0.99503 -0.0995747
    outer loop
      vertex 6 -3.1913 47.6511
      vertex 3 -3.12181 46.9567
      vertex 6 -3.12181 46.9567
    endloop
  endfacet
  facet normal -1 0 0
    outer loop
      vertex 3 -3.12181 46.9567
      vertex 3 -3 49.6459
      vertex 3 -3 46.3541
    endloop
  endfacet
  facet normal -1 0 0
    outer loop
      vertex 3 -3.12181 46.9567
      vertex 3 -3.12181 49.0433
      vertex 3 -3 49.6459
    endloop
  endfacet
  facet normal -1 0 0
    outer loop
      vertex 3 -3.1913 47.6511
      vertex 3 -3.12181 49.0433
      vertex 3 -3.12181 46.9567
    endloop
  endfacet
  facet normal -1 0 0
    outer loop
      vertex 3 -3.12181 49.0433
      vertex 3 -3.1913 47.6511
      vertex 3 -3.1913 48.3489
    endloop
  endfacet
  facet normal 0 -0.980175 -0.198133
    outer loop
      vertex 3 -3 46.3541
      vertex 6 -3.12181 46.9567
      vertex 3 -3.12181 46.9567
    endloop
  endfacet
  facet normal 0 -0.980175 -0.198133
    outer loop
      vertex 6 -3.12181 46.9567
      vertex 3 -3 46.3541
      vertex 6 -3 46.3541
    endloop
  endfacet
  facet normal 0 -0.99503 0.0995747
    outer loop
      vertex 3 -3.1913 48.3489
      vertex 6 -3.12181 49.0433
      vertex 3 -3.12181 49.0433
    endloop
  endfacet
  facet normal 0 -0.99503 0.0995747
    outer loop
      vertex 6 -3.12181 49.0433
      vertex 3 -3.1913 48.3489
      vertex 6 -3.1913 48.3489
    endloop
  endfacet
  facet normal 0 -1 0
    outer loop
      vertex 3 -3.1913 47.6511
      vertex 6 -3.1913 48.3489
      vertex 3 -3.1913 48.3489
    endloop
  endfacet
  facet normal 0 -1 -0
    outer loop
      vertex 6 -3.1913 48.3489
      vertex 3 -3.1913 47.6511
      vertex 6 -3.1913 47.6511
    endloop
  endfacet
  facet normal 1 -0 0
    outer loop
      vertex 6 -3.12181 49.0433
      vertex 6 -3 46.3541
      vertex 6 -3 49.6459
    endloop
  endfacet
  facet normal 1 0 0
    outer loop
      vertex 6 -3.12181 49.0433
      vertex 6 -3.12181 46.9567
      vertex 6 -3 46.3541
    endloop
  endfacet
  facet normal 1 -0 0
    outer loop
      vertex 6 -3.1913 48.3489
      vertex 6 -3.12181 46.9567
      vertex 6 -3.12181 49.0433
    endloop
  endfacet
  facet normal 1 0 0
    outer loop
      vertex 6 -3.12181 46.9567
      vertex 6 -3.1913 48.3489
      vertex 6 -3.1913 47.6511
    endloop
  endfacet
  facet normal 0 -0.980175 0.198133
    outer loop
      vertex 34 -3.12181 49.0433
      vertex 37 -3 49.6459
      vertex 34 -3 49.6459
    endloop
  endfacet
  facet normal 0 -0.980175 0.198133
    outer loop
      vertex 37 -3 49.6459
      vertex 34 -3.12181 49.0433
      vertex 37 -3.12181 49.0433
    endloop
  endfacet
  facet normal 0 -0.99503 -0.0995747
    outer loop
      vertex 34 -3.12181 46.9567
      vertex 37 -3.1913 47.6511
      vertex 34 -3.1913 47.6511
    endloop
  endfacet
  facet normal 0 -0.99503 -0.0995747
    outer loop
      vertex 37 -3.1913 47.6511
      vertex 34 -3.12181 46.9567
      vertex 37 -3.12181 46.9567
    endloop
  endfacet
  facet normal -1 0 0
    outer loop
      vertex 34 -3.12181 46.9567
      vertex 34 -3 49.6459
      vertex 34 -3 46.3541
    endloop
  endfacet
  facet normal -1 0 0
    outer loop
      vertex 34 -3.12181 46.9567
      vertex 34 -3.12181 49.0433
      vertex 34 -3 49.6459
    endloop
  endfacet
  facet normal -1 0 0
    outer loop
      vertex 34 -3.1913 47.6511
      vertex 34 -3.12181 49.0433
      vertex 34 -3.12181 46.9567
    endloop
  endfacet
  facet normal -1 0 0
    outer loop
      vertex 34 -3.12181 49.0433
      vertex 34 -3.1913 47.6511
      vertex 34 -3.1913 48.3489
    endloop
  endfacet
  facet normal 0 -0.980175 -0.198133
    outer loop
      vertex 34 -3 46.3541
      vertex 37 -3.12181 46.9567
      vertex 34 -3.12181 46.9567
    endloop
  endfacet
  facet normal 0 -0.980175 -0.198133
    outer loop
      vertex 37 -3.12181 46.9567
      vertex 34 -3 46.3541
      vertex 37 -3 46.3541
    endloop
  endfacet
  facet normal 0 -0.99503 0.0995747
    outer loop
      vertex 34 -3.1913 48.3489
      vertex 37 -3.12181 49.0433
      vertex 34 -3.12181 49.0433
    endloop
  endfacet
  facet normal 0 -0.99503 0.0995747
    outer loop
      vertex 37 -3.12181 49.0433
      vertex 34 -3.1913 48.3489
      vertex 37 -3.1913 48.3489
    endloop
  endfacet
  facet normal 0 -1 0
    outer loop
      vertex 34 -3.1913 47.6511
      vertex 37 -3.1913 48.3489
      vertex 34 -3.1913 48.3489
    endloop
  endfacet
  facet normal 0 -1 -0
    outer loop
      vertex 37 -3.1913 48.3489
      vertex 34 -3.1913 47.6511
      vertex 37 -3.1913 47.6511
    endloop
  endfacet
  facet normal 1 -0 0
    outer loop
      vertex 37 -3.12181 49.0433
      vertex 37 -3 46.3541
      vertex 37 -3 49.6459
    endloop
  endfacet
  facet normal 1 0 0
    outer loop
      vertex 37 -3.12181 49.0433
      vertex 37 -3.12181 46.9567
      vertex 37 -3 46.3541
    endloop
  endfacet
  facet normal 1 -0 0
    outer loop
      vertex 37 -3.1913 48.3489
      vertex 37 -3.12181 46.9567
      vertex 37 -3.12181 49.0433
    endloop
  endfacet
  facet normal 1 0 0
    outer loop
      vertex 37 -3.12181 46.9567
      vertex 37 -3.1913 48.3489
      vertex 37 -3.1913 47.6511
    endloop
  endfacet
  facet normal 0 0.980178 0.198118
    outer loop
      vertex 6 -10.0782 49.0433
      vertex 3 -10.2 49.6459
      vertex 6 -10.2 49.6459
    endloop
  endfacet
  facet normal 0 0.980178 0.198118
    outer loop
      vertex 3 -10.2 49.6459
      vertex 6 -10.0782 49.0433
      vertex 3 -10.0782 49.0433
    endloop
  endfacet
  facet normal 0 0.995029 -0.0995888
    outer loop
      vertex 6 -10.0782 46.9567
      vertex 3 -10.0087 47.6511
      vertex 6 -10.0087 47.6511
    endloop
  endfacet
  facet normal 0 0.995029 -0.0995888
    outer loop
      vertex 3 -10.0087 47.6511
      vertex 6 -10.0782 46.9567
      vertex 3 -10.0782 46.9567
    endloop
  endfacet
  facet normal 1 0 0
    outer loop
      vertex 6 -10.0782 49.0433
      vertex 6 -10.0087 47.6511
      vertex 6 -10.0087 48.3489
    endloop
  endfacet
  facet normal 1 0 0
    outer loop
      vertex 6 -10.0782 49.0433
      vertex 6 -10.0782 46.9567
      vertex 6 -10.0087 47.6511
    endloop
  endfacet
  facet normal 1 0 0
    outer loop
      vertex 6 -10.2 49.6459
      vertex 6 -10.0782 46.9567
      vertex 6 -10.0782 49.0433
    endloop
  endfacet
  facet normal 1 0 0
    outer loop
      vertex 6 -10.0782 46.9567
      vertex 6 -10.2 49.6459
      vertex 6 -10.2 46.3541
    endloop
  endfacet
  facet normal 0 0.980178 -0.198118
    outer loop
      vertex 6 -10.2 46.3541
      vertex 3 -10.0782 46.9567
      vertex 6 -10.0782 46.9567
    endloop
  endfacet
  facet normal 0 0.980178 -0.198118
    outer loop
      vertex 3 -10.0782 46.9567
      vertex 6 -10.2 46.3541
      vertex 3 -10.2 46.3541
    endloop
  endfacet
  facet normal 0 0.995029 0.0995888
    outer loop
      vertex 6 -10.0087 48.3489
      vertex 3 -10.0782 49.0433
      vertex 6 -10.0782 49.0433
    endloop
  endfacet
  facet normal 0 0.995029 0.0995888
    outer loop
      vertex 3 -10.0782 49.0433
      vertex 6 -10.0087 48.3489
      vertex 3 -10.0087 48.3489
    endloop
  endfacet
  facet normal 0 1 -0
    outer loop
      vertex 6 -10.0087 47.6511
      vertex 3 -10.0087 48.3489
      vertex 6 -10.0087 48.3489
    endloop
  endfacet
  facet normal 0 1 0
    outer loop
      vertex 3 -10.0087 48.3489
      vertex 6 -10.0087 47.6511
      vertex 3 -10.0087 47.6511
    endloop
  endfacet
  facet normal -1 0 0
    outer loop
      vertex 3 -10.0782 46.9567
      vertex 3 -10.0087 48.3489
      vertex 3 -10.0087 47.6511
    endloop
  endfacet
  facet normal -1 0 0
    outer loop
      vertex 3 -10.0782 46.9567
      vertex 3 -10.0782 49.0433
      vertex 3 -10.0087 48.3489
    endloop
  endfacet
  facet normal -1 0 0
    outer loop
      vertex 3 -10.2 46.3541
      vertex 3 -10.0782 49.0433
      vertex 3 -10.0782 46.9567
    endloop
  endfacet
  facet normal -1 -0 0
    outer loop
      vertex 3 -10.0782 49.0433
      vertex 3 -10.2 46.3541
      vertex 3 -10.2 49.6459
    endloop
  endfacet
  facet normal 0 0.980178 0.198118
    outer loop
      vertex 37 -10.0782 49.0433
      vertex 34 -10.2 49.6459
      vertex 37 -10.2 49.6459
    endloop
  endfacet
  facet normal 0 0.980178 0.198118
    outer loop
      vertex 34 -10.2 49.6459
      vertex 37 -10.0782 49.0433
      vertex 34 -10.0782 49.0433
    endloop
  endfacet
  facet normal 0 0.995029 -0.0995888
    outer loop
      vertex 37 -10.0782 46.9567
      vertex 34 -10.0087 47.6511
      vertex 37 -10.0087 47.6511
    endloop
  endfacet
  facet normal 0 0.995029 -0.0995888
    outer loop
      vertex 34 -10.0087 47.6511
      vertex 37 -10.0782 46.9567
      vertex 34 -10.0782 46.9567
    endloop
  endfacet
  facet normal 1 0 0
    outer loop
      vertex 37 -10.0782 49.0433
      vertex 37 -10.0087 47.6511
      vertex 37 -10.0087 48.3489
    endloop
  endfacet
  facet normal 1 0 0
    outer loop
      vertex 37 -10.0782 49.0433
      vertex 37 -10.0782 46.9567
      vertex 37 -10.0087 47.6511
    endloop
  endfacet
  facet normal 1 0 0
    outer loop
      vertex 37 -10.2 49.6459
      vertex 37 -10.0782 46.9567
      vertex 37 -10.0782 49.0433
    endloop
  endfacet
  facet normal 1 0 0
    outer loop
      vertex 37 -10.0782 46.9567
      vertex 37 -10.2 49.6459
      vertex 37 -10.2 46.3541
    endloop
  endfacet
  facet normal 0 0.980178 -0.198118
    outer loop
      vertex 37 -10.2 46.3541
      vertex 34 -10.0782 46.9567
      vertex 37 -10.0782 46.9567
    endloop
  endfacet
  facet normal 0 0.980178 -0.198118
    outer loop
      vertex 34 -10.0782 46.9567
      vertex 37 -10.2 46.3541
      vertex 34 -10.2 46.3541
    endloop
  endfacet
  facet normal 0 0.995029 0.0995888
    outer loop
      vertex 37 -10.0087 48.3489
      vertex 34 -10.0782 49.0433
      vertex 37 -10.0782 49.0433
    endloop
  endfacet
  facet normal 0 0.995029 0.0995888
    outer loop
      vertex 34 -10.0782 49.0433
      vertex 37 -10.0087 48.3489
      vertex 34 -10.0087 48.3489
    endloop
  endfacet
  facet normal 0 1 -0
    outer loop
      vertex 37 -10.0087 47.6511
      vertex 34 -10.0087 48.3489
      vertex 37 -10.0087 48.3489
    endloop
  endfacet
  facet normal 0 1 0
    outer loop
      vertex 34 -10.0087 48.3489
      vertex 37 -10.0087 47.6511
      vertex 34 -10.0087 47.6511
    endloop
  endfacet
  facet normal -1 0 0
    outer loop
      vertex 34 -10.0782 46.9567
      vertex 34 -10.0087 48.3489
      vertex 34 -10.0087 47.6511
    endloop
  endfacet
  facet normal -1 0 0
    outer loop
      vertex 34 -10.0782 46.9567
      vertex 34 -10.0782 49.0433
      vertex 34 -10.0087 48.3489
    endloop
  endfacet
  facet normal -1 0 0
    outer loop
      vertex 34 -10.2 46.3541
      vertex 34 -10.0782 49.0433
      vertex 34 -10.0782 46.9567
    endloop
  endfacet
  facet normal -1 -0 0
    outer loop
      vertex 34 -10.0782 49.0433
      vertex 34 -10.2 46.3541
      vertex 34 -10.2 49.6459
    endloop
  endfacet
endsolid OpenSCAD_Model
