solid OpenSCAD_Model
  facet normal 0 -0.99503 -0.0995747
    outer loop
      vertex 3 -3.12181 46.9567
      vertex 6 -3.1913 47.6511
      vertex 3 -3.1913 47.6511
    endloop
  endfacet
  facet normal 0 -0.99503 -0.0995747
    outer loop
      vertex 6 -3.1913 47.6511
      vertex 3 -3.12181 46.9567
      vertex 6 -3.12181 46.9567
    endloop
  endfacet
  facet normal -1 0 0
    outer loop
      vertex 3 -3.12181 46.9567
      vertex 3 -3 49
      vertex 3 -3 46.3541
    endloop
  endfacet
  facet normal -1 0 0
    outer loop
      vertex 3 -3.1913 47.6511
      vertex 3 -3 49
      vertex 3 -3.12181 46.9567
    endloop
  endfacet
  facet normal -1 0 0
    outer loop
      vertex 3 -3.1913 48.3489
      vertex 3 -3 49
      vertex 3 -3.1913 47.6511
    endloop
  endfacet
  facet normal -1 -0 0
    outer loop
      vertex 3 -3 49
      vertex 3 -3.1913 48.3489
      vertex 3 -3.12615 49
    endloop
  endfacet
  facet normal 0 -0.980175 -0.198133
    outer loop
      vertex 3 -3 46.3541
      vertex 6 -3.12181 46.9567
      vertex 3 -3.12181 46.9567
    endloop
  endfacet
  facet normal 0 -0.980175 -0.198133
    outer loop
      vertex 6 -3.12181 46.9567
      vertex 3 -3 46.3541
      vertex 6 -3 46.3541
    endloop
  endfacet
  facet normal 0 -0.980175 0.198133
    outer loop
      vertex 3.5 -3.12181 49.0433
      vertex 6 -3 49.6459
      vertex 3.5 -3 49.6459
    endloop
  endfacet
  facet normal 0 -0.980175 0.198133
    outer loop
      vertex 6 -3 49.6459
      vertex 3.5 -3.12181 49.0433
      vertex 6 -3.12181 49.0433
    endloop
  endfacet
  facet normal 0 -0.995031 0.0995642
    outer loop
      vertex 3 -3.12615 49
      vertex 3 -3.1913 48.3489
      vertex 3.5 -3.12615 49
    endloop
  endfacet
  facet normal 0 -0.995014 0.0997312
    outer loop
      vertex 3.5 -3.12615 49
      vertex 6 -3.12181 49.0433
      vertex 3.5 -3.12181 49.0433
    endloop
  endfacet
  facet normal 0 -0.995031 0.0995642
    outer loop
      vertex 6 -3.1913 48.3489
      vertex 3.5 -3.12615 49
      vertex 3 -3.1913 48.3489
    endloop
  endfacet
  facet normal 2.7392e-06 -0.99503 0.0995747
    outer loop
      vertex 3.5 -3.12615 49
      vertex 6 -3.1913 48.3489
      vertex 6 -3.12181 49.0433
    endloop
  endfacet
  facet normal 0 -1 0
    outer loop
      vertex 3 -3.1913 47.6511
      vertex 6 -3.1913 48.3489
      vertex 3 -3.1913 48.3489
    endloop
  endfacet
  facet normal 0 -1 -0
    outer loop
      vertex 6 -3.1913 48.3489
      vertex 3 -3.1913 47.6511
      vertex 6 -3.1913 47.6511
    endloop
  endfacet
  facet normal 1 -0 0
    outer loop
      vertex 6 -3.12181 49.0433
      vertex 6 -3 46.3541
      vertex 6 -3 49.6459
    endloop
  endfacet
  facet normal 1 0 0
    outer loop
      vertex 6 -3.12181 49.0433
      vertex 6 -3.12181 46.9567
      vertex 6 -3 46.3541
    endloop
  endfacet
  facet normal 1 -0 0
    outer loop
      vertex 6 -3.1913 48.3489
      vertex 6 -3.12181 46.9567
      vertex 6 -3.12181 49.0433
    endloop
  endfacet
  facet normal 1 0 0
    outer loop
      vertex 6 -3.12181 46.9567
      vertex 6 -3.1913 48.3489
      vertex 6 -3.1913 47.6511
    endloop
  endfacet
  facet normal 0 -0.99503 -0.0995747
    outer loop
      vertex 34 -3.12181 46.9567
      vertex 37 -3.1913 47.6511
      vertex 34 -3.1913 47.6511
    endloop
  endfacet
  facet normal 0 -0.99503 -0.0995747
    outer loop
      vertex 37 -3.1913 47.6511
      vertex 34 -3.12181 46.9567
      vertex 37 -3.12181 46.9567
    endloop
  endfacet
  facet normal -1 0 0
    outer loop
      vertex 34 -3.12181 46.9567
      vertex 34 -3 49.6459
      vertex 34 -3 46.3541
    endloop
  endfacet
  facet normal -1 0 0
    outer loop
      vertex 34 -3.12181 46.9567
      vertex 34 -3.12181 49.0433
      vertex 34 -3 49.6459
    endloop
  endfacet
  facet normal -1 0 0
    outer loop
      vertex 34 -3.1913 47.6511
      vertex 34 -3.12181 49.0433
      vertex 34 -3.12181 46.9567
    endloop
  endfacet
  facet normal -1 0 0
    outer loop
      vertex 34 -3.12181 49.0433
      vertex 34 -3.1913 47.6511
      vertex 34 -3.1913 48.3489
    endloop
  endfacet
  facet normal 0 -0.980175 -0.198133
    outer loop
      vertex 34 -3 46.3541
      vertex 37 -3.12181 46.9567
      vertex 34 -3.12181 46.9567
    endloop
  endfacet
  facet normal 0 -0.980175 -0.198133
    outer loop
      vertex 37 -3.12181 46.9567
      vertex 34 -3 46.3541
      vertex 37 -3 46.3541
    endloop
  endfacet
  facet normal 0 -0.980175 0.198133
    outer loop
      vertex 34 -3.12181 49.0433
      vertex 37 -3 49.6459
      vertex 34 -3 49.6459
    endloop
  endfacet
  facet normal 0 -0.980175 0.198133
    outer loop
      vertex 37 -3 49.6459
      vertex 34 -3.12181 49.0433
      vertex 37 -3.12181 49.0433
    endloop
  endfacet
  facet normal 0 -0.99503 0.0995747
    outer loop
      vertex 34 -3.1913 48.3489
      vertex 37 -3.12181 49.0433
      vertex 34 -3.12181 49.0433
    endloop
  endfacet
  facet normal 0 -0.99503 0.0995747
    outer loop
      vertex 37 -3.12181 49.0433
      vertex 34 -3.1913 48.3489
      vertex 37 -3.1913 48.3489
    endloop
  endfacet
  facet normal 0 -1 0
    outer loop
      vertex 34 -3.1913 47.6511
      vertex 37 -3.1913 48.3489
      vertex 34 -3.1913 48.3489
    endloop
  endfacet
  facet normal 0 -1 -0
    outer loop
      vertex 37 -3.1913 48.3489
      vertex 34 -3.1913 47.6511
      vertex 37 -3.1913 47.6511
    endloop
  endfacet
  facet normal 1 -0 0
    outer loop
      vertex 37 -3.12181 49.0433
      vertex 37 -3 46.3541
      vertex 37 -3 49.6459
    endloop
  endfacet
  facet normal 1 0 0
    outer loop
      vertex 37 -3.12181 49.0433
      vertex 37 -3.12181 46.9567
      vertex 37 -3 46.3541
    endloop
  endfacet
  facet normal 1 -0 0
    outer loop
      vertex 37 -3.1913 48.3489
      vertex 37 -3.12181 46.9567
      vertex 37 -3.12181 49.0433
    endloop
  endfacet
  facet normal 1 0 0
    outer loop
      vertex 37 -3.12181 46.9567
      vertex 37 -3.1913 48.3489
      vertex 37 -3.1913 47.6511
    endloop
  endfacet
  facet normal 0 0.995029 -0.0995888
    outer loop
      vertex 6 -10.0782 46.9567
      vertex 3 -10.0087 47.6511
      vertex 6 -10.0087 47.6511
    endloop
  endfacet
  facet normal 0 0.995029 -0.0995888
    outer loop
      vertex 3 -10.0087 47.6511
      vertex 6 -10.0782 46.9567
      vertex 3 -10.0782 46.9567
    endloop
  endfacet
  facet normal 1 0 0
    outer loop
      vertex 6 -10.0782 49.0433
      vertex 6 -10.0087 47.6511
      vertex 6 -10.0087 48.3489
    endloop
  endfacet
  facet normal 1 0 0
    outer loop
      vertex 6 -10.0782 49.0433
      vertex 6 -10.0782 46.9567
      vertex 6 -10.0087 47.6511
    endloop
  endfacet
  facet normal 1 0 0
    outer loop
      vertex 6 -10.2 49.6459
      vertex 6 -10.0782 46.9567
      vertex 6 -10.0782 49.0433
    endloop
  endfacet
  facet normal 1 0 0
    outer loop
      vertex 6 -10.0782 46.9567
      vertex 6 -10.2 49.6459
      vertex 6 -10.2 46.3541
    endloop
  endfacet
  facet normal 0 0.980178 -0.198118
    outer loop
      vertex 6 -10.2 46.3541
      vertex 3 -10.0782 46.9567
      vertex 6 -10.0782 46.9567
    endloop
  endfacet
  facet normal 0 0.980178 -0.198118
    outer loop
      vertex 3 -10.0782 46.9567
      vertex 6 -10.2 46.3541
      vertex 3 -10.2 46.3541
    endloop
  endfacet
  facet normal 0 0.980178 0.198118
    outer loop
      vertex 6 -10.0782 49.0433
      vertex 3.5 -10.2 49.6459
      vertex 6 -10.2 49.6459
    endloop
  endfacet
  facet normal 0 0.980178 0.198118
    outer loop
      vertex 3.5 -10.2 49.6459
      vertex 6 -10.0782 49.0433
      vertex 3.5 -10.0782 49.0433
    endloop
  endfacet
  facet normal 0 0.995105 0.0988211
    outer loop
      vertex 6 -10.0782 49.0433
      vertex 3.5 -10.0739 49
      vertex 3.5 -10.0782 49.0433
    endloop
  endfacet
  facet normal -1.34294e-05 0.995029 0.0995888
    outer loop
      vertex 6 -10.0087 48.3489
      vertex 3.5 -10.0739 49
      vertex 6 -10.0782 49.0433
    endloop
  endfacet
  facet normal -0 0.995024 0.0996399
    outer loop
      vertex 3 -10.0087 48.3489
      vertex 3.5 -10.0739 49
      vertex 6 -10.0087 48.3489
    endloop
  endfacet
  facet normal 0 0.995024 0.0996399
    outer loop
      vertex 3.5 -10.0739 49
      vertex 3 -10.0087 48.3489
      vertex 3 -10.0739 49
    endloop
  endfacet
  facet normal 0 1 -0
    outer loop
      vertex 6 -10.0087 47.6511
      vertex 3 -10.0087 48.3489
      vertex 6 -10.0087 48.3489
    endloop
  endfacet
  facet normal 0 1 0
    outer loop
      vertex 3 -10.0087 48.3489
      vertex 6 -10.0087 47.6511
      vertex 3 -10.0087 47.6511
    endloop
  endfacet
  facet normal -1 0 0
    outer loop
      vertex 3 -10.2 49
      vertex 3 -10.0087 48.3489
      vertex 3 -10.0087 47.6511
    endloop
  endfacet
  facet normal -1 0 0
    outer loop
      vertex 3 -10.2 49
      vertex 3 -10.0087 47.6511
      vertex 3 -10.0782 46.9567
    endloop
  endfacet
  facet normal -1 0 0
    outer loop
      vertex 3 -10.2 49
      vertex 3 -10.0782 46.9567
      vertex 3 -10.2 46.3541
    endloop
  endfacet
  facet normal -1 0 0
    outer loop
      vertex 3 -10.0087 48.3489
      vertex 3 -10.2 49
      vertex 3 -10.0739 49
    endloop
  endfacet
  facet normal 0 0.995029 -0.0995888
    outer loop
      vertex 37 -10.0782 46.9567
      vertex 34 -10.0087 47.6511
      vertex 37 -10.0087 47.6511
    endloop
  endfacet
  facet normal 0 0.995029 -0.0995888
    outer loop
      vertex 34 -10.0087 47.6511
      vertex 37 -10.0782 46.9567
      vertex 34 -10.0782 46.9567
    endloop
  endfacet
  facet normal 1 0 0
    outer loop
      vertex 37 -10.0782 49.0433
      vertex 37 -10.0087 47.6511
      vertex 37 -10.0087 48.3489
    endloop
  endfacet
  facet normal 1 0 0
    outer loop
      vertex 37 -10.0782 49.0433
      vertex 37 -10.0782 46.9567
      vertex 37 -10.0087 47.6511
    endloop
  endfacet
  facet normal 1 0 0
    outer loop
      vertex 37 -10.2 49.6459
      vertex 37 -10.0782 46.9567
      vertex 37 -10.0782 49.0433
    endloop
  endfacet
  facet normal 1 0 0
    outer loop
      vertex 37 -10.0782 46.9567
      vertex 37 -10.2 49.6459
      vertex 37 -10.2 46.3541
    endloop
  endfacet
  facet normal 0 0.955603 -0.294656
    outer loop
      vertex 34.5 -10.3 46.0019
      vertex 34 -10.2165 46.2727
      vertex 34.5 -10.2165 46.2727
    endloop
  endfacet
  facet normal 0 0.955603 -0.294656
    outer loop
      vertex 34 -10.2165 46.2727
      vertex 34.5 -10.3 46.0019
      vertex 34 -10.3 46.0019
    endloop
  endfacet
  facet normal 0 0.980178 -0.198118
    outer loop
      vertex 34.5 -10.2 46.3541
      vertex 37 -10.0782 46.9567
      vertex 37 -10.2 46.3541
    endloop
  endfacet
  facet normal 0 0.980178 -0.198118
    outer loop
      vertex 37 -10.0782 46.9567
      vertex 34.5 -10.2 46.3541
      vertex 34 -10.0782 46.9567
    endloop
  endfacet
  facet normal 0 0.980068 -0.198662
    outer loop
      vertex 34 -10.2165 46.2727
      vertex 34.5 -10.2 46.3541
      vertex 34.5 -10.2165 46.2727
    endloop
  endfacet
  facet normal -8.13365e-05 0.980165 -0.198183
    outer loop
      vertex 34.5 -10.2 46.3541
      vertex 34 -10.2165 46.2727
      vertex 34 -10.0782 46.9567
    endloop
  endfacet
  facet normal 0 0.955603 0.294656
    outer loop
      vertex 34.5 -10.2165 49.7273
      vertex 34 -10.3 49.9981
      vertex 34.5 -10.3 49.9981
    endloop
  endfacet
  facet normal 0 0.955603 0.294656
    outer loop
      vertex 34 -10.3 49.9981
      vertex 34.5 -10.2165 49.7273
      vertex 34 -10.2165 49.7273
    endloop
  endfacet
  facet normal 0 0.980178 0.198118
    outer loop
      vertex 37 -10.2 49.6459
      vertex 37 -10.0782 49.0433
      vertex 34.5 -10.2 49.6459
    endloop
  endfacet
  facet normal 0 0.980068 0.198662
    outer loop
      vertex 34.5 -10.2 49.6459
      vertex 34 -10.2165 49.7273
      vertex 34.5 -10.2165 49.7273
    endloop
  endfacet
  facet normal -0 0.980178 0.198118
    outer loop
      vertex 34 -10.0782 49.0433
      vertex 34.5 -10.2 49.6459
      vertex 37 -10.0782 49.0433
    endloop
  endfacet
  facet normal -8.13365e-05 0.980165 0.198183
    outer loop
      vertex 34.5 -10.2 49.6459
      vertex 34 -10.0782 49.0433
      vertex 34 -10.2165 49.7273
    endloop
  endfacet
  facet normal 0 0.995029 0.0995888
    outer loop
      vertex 37 -10.0087 48.3489
      vertex 34 -10.0782 49.0433
      vertex 37 -10.0782 49.0433
    endloop
  endfacet
  facet normal 0 0.995029 0.0995888
    outer loop
      vertex 34 -10.0782 49.0433
      vertex 37 -10.0087 48.3489
      vertex 34 -10.0087 48.3489
    endloop
  endfacet
  facet normal 0 1 -0
    outer loop
      vertex 37 -10.0087 47.6511
      vertex 34 -10.0087 48.3489
      vertex 37 -10.0087 48.3489
    endloop
  endfacet
  facet normal 0 1 0
    outer loop
      vertex 34 -10.0087 48.3489
      vertex 37 -10.0087 47.6511
      vertex 34 -10.0087 47.6511
    endloop
  endfacet
  facet normal -1 0 0
    outer loop
      vertex 34 -10.0782 46.9567
      vertex 34 -10.0087 48.3489
      vertex 34 -10.0087 47.6511
    endloop
  endfacet
  facet normal -1 0 0
    outer loop
      vertex 34 -10.0782 46.9567
      vertex 34 -10.0782 49.0433
      vertex 34 -10.0087 48.3489
    endloop
  endfacet
  facet normal -1 0 0
    outer loop
      vertex 34 -10.3 46.0019
      vertex 34 -10.0782 46.9567
      vertex 34 -10.2165 46.2727
    endloop
  endfacet
  facet normal -1 -0 0
    outer loop
      vertex 34 -10.0782 46.9567
      vertex 34 -10.3 46.0019
      vertex 34 -10.0782 49.0433
    endloop
  endfacet
  facet normal -1 0 0
    outer loop
      vertex 34 -10.3 49.9981
      vertex 34 -10.0782 49.0433
      vertex 34 -10.3 46.0019
    endloop
  endfacet
  facet normal -1 0 0
    outer loop
      vertex 34 -10.0782 49.0433
      vertex 34 -10.3 49.9981
      vertex 34 -10.2165 49.7273
    endloop
  endfacet
  facet normal 0 -1 0
    outer loop
      vertex 34 -10.3 46.0019
      vertex 34.5 -10.3 49.9981
      vertex 34 -10.3 49.9981
    endloop
  endfacet
  facet normal 0 -1 -0
    outer loop
      vertex 34.5 -10.3 49.9981
      vertex 34 -10.3 46.0019
      vertex 34.5 -10.3 46.0019
    endloop
  endfacet
  facet normal 1 1.66667e-05 0
    outer loop
      vertex 37.5001 3.00058 41.5
      vertex 37.5 9.00058 8.5
      vertex 37.5 9.00058 41.5
    endloop
  endfacet
  facet normal 1 1.66667e-05 0
    outer loop
      vertex 37.5 9.00058 8.5
      vertex 37.5001 3.00058 41.5
      vertex 37.5001 3.00058 8.5
    endloop
  endfacet
  facet normal 1.75758e-05 -1 4.329e-07
    outer loop
      vertex 4.5001 3 41.5
      vertex 8.0001 3.00006 38
      vertex 37.5001 3.00058 41.5
    endloop
  endfacet
  facet normal 1.71429e-05 -1 0
    outer loop
      vertex 4.5001 3 41.5
      vertex 8.0001 3.00006 12
      vertex 8.0001 3.00006 38
    endloop
  endfacet
  facet normal 1.73077e-05 -1 -1.64835e-07
    outer loop
      vertex 8.0001 3.00006 12
      vertex 4.5001 3 8.5
      vertex 34.0001 3.00051 12
    endloop
  endfacet
  facet normal 1.71429e-05 -1 0
    outer loop
      vertex 4.5001 3 8.5
      vertex 8.0001 3.00006 12
      vertex 4.5001 3 41.5
    endloop
  endfacet
  facet normal 1.73077e-05 -1 2.69231e-06
    outer loop
      vertex 34.0001 3.00051 38
      vertex 37.5001 3.00058 41.5
      vertex 8.0001 3.00006 38
    endloop
  endfacet
  facet normal 2e-05 -1 0
    outer loop
      vertex 34.0001 3.00051 12
      vertex 37.5001 3.00058 41.5
      vertex 34.0001 3.00051 38
    endloop
  endfacet
  facet normal 2e-05 -1 0
    outer loop
      vertex 34.0001 3.00051 12
      vertex 37.5001 3.00058 8.5
      vertex 37.5001 3.00058 41.5
    endloop
  endfacet
  facet normal 1.75758e-05 -1 -2.42424e-06
    outer loop
      vertex 37.5001 3.00058 8.5
      vertex 34.0001 3.00051 12
      vertex 4.5001 3 8.5
    endloop
  endfacet
  facet normal -1.75758e-05 1 0
    outer loop
      vertex 37.5 9.00058 8.5
      vertex 4.5 9 41.5
      vertex 37.5 9.00058 41.5
    endloop
  endfacet
  facet normal -1.75758e-05 1 0
    outer loop
      vertex 4.5 9 41.5
      vertex 37.5 9.00058 8.5
      vertex 4.5 9 8.5
    endloop
  endfacet
  facet normal -1 -1.66667e-05 0
    outer loop
      vertex 4.5001 3 8.5
      vertex 4.5 9 41.5
      vertex 4.5 9 8.5
    endloop
  endfacet
  facet normal -1 -1.66667e-05 0
    outer loop
      vertex 4.5 9 41.5
      vertex 4.5001 3 8.5
      vertex 4.5001 3 41.5
    endloop
  endfacet
  facet normal 0 0 1
    outer loop
      vertex 37.5 9.00058 41.5
      vertex 4.5001 3 41.5
      vertex 37.5001 3.00058 41.5
    endloop
  endfacet
  facet normal 0 -0 1
    outer loop
      vertex 4.5001 3 41.5
      vertex 37.5 9.00058 41.5
      vertex 4.5 9 41.5
    endloop
  endfacet
  facet normal 0 0 -1
    outer loop
      vertex 4.5001 3 8.5
      vertex 37.5 9.00058 8.5
      vertex 37.5001 3.00058 8.5
    endloop
  endfacet
  facet normal 0 0 -1
    outer loop
      vertex 37.5 9.00058 8.5
      vertex 4.5001 3 8.5
      vertex 4.5 9 8.5
    endloop
  endfacet
  facet normal 1 3.33334e-05 0
    outer loop
      vertex 34.0002 0.000514873 38
      vertex 34.0001 3.00051 12
      vertex 34.0001 3.00051 38
    endloop
  endfacet
  facet normal 1 3.33334e-05 0
    outer loop
      vertex 34.0001 3.00051 12
      vertex 34.0002 0.000514873 38
      vertex 34.0002 0.000514873 12
    endloop
  endfacet
  facet normal -1.74533e-05 1 -1.57932e-10
    outer loop
      vertex 37.5002 0.00057596 41.5
      vertex 34.0002 0.000514873 38
      vertex 4.50016 1.37078e-09 41.5
    endloop
  endfacet
  facet normal -1.74534e-05 1 0
    outer loop
      vertex 37.5002 0.00057596 41.5
      vertex 34.0002 0.000514873 12
      vertex 34.0002 0.000514873 38
    endloop
  endfacet
  facet normal -1.74532e-05 1 1.82346e-10
    outer loop
      vertex 34.0002 0.000514873 12
      vertex 37.5002 0.00057596 8.5
      vertex 8.00016 6.10879e-05 12
    endloop
  endfacet
  facet normal -1.74534e-05 1 0
    outer loop
      vertex 37.5002 0.00057596 8.5
      vertex 34.0002 0.000514873 12
      vertex 37.5002 0.00057596 41.5
    endloop
  endfacet
  facet normal -1.74532e-05 1 4.78371e-11
    outer loop
      vertex 8.00016 6.10879e-05 38
      vertex 4.50016 1.37078e-09 41.5
      vertex 34.0002 0.000514873 38
    endloop
  endfacet
  facet normal -1.74533e-05 1 0
    outer loop
      vertex 8.00016 6.10879e-05 12
      vertex 4.50016 1.37078e-09 41.5
      vertex 8.00016 6.10879e-05 38
    endloop
  endfacet
  facet normal -1.74533e-05 1 0
    outer loop
      vertex 8.00016 6.10879e-05 12
      vertex 4.50016 1.37078e-09 8.5
      vertex 4.50016 1.37078e-09 41.5
    endloop
  endfacet
  facet normal -1.74533e-05 1 -2.34238e-11
    outer loop
      vertex 4.50016 1.37078e-09 8.5
      vertex 8.00016 6.10879e-05 12
      vertex 37.5002 0.00057596 8.5
    endloop
  endfacet
  facet normal -1 -2e-05 0
    outer loop
      vertex 8.00016 6.10879e-05 12
      vertex 8.0001 3.00006 38
      vertex 8.0001 3.00006 12
    endloop
  endfacet
  facet normal -1 -2e-05 0
    outer loop
      vertex 8.0001 3.00006 38
      vertex 8.00016 6.10879e-05 12
      vertex 8.00016 6.10879e-05 38
    endloop
  endfacet
  facet normal 0 0 1
    outer loop
      vertex 34.0001 3.00051 38
      vertex 8.00016 6.10879e-05 38
      vertex 34.0002 0.000514873 38
    endloop
  endfacet
  facet normal 0 -0 1
    outer loop
      vertex 8.00016 6.10879e-05 38
      vertex 34.0001 3.00051 38
      vertex 8.0001 3.00006 38
    endloop
  endfacet
  facet normal 0 0 -1
    outer loop
      vertex 8.00016 6.10879e-05 12
      vertex 34.0001 3.00051 12
      vertex 34.0002 0.000514873 12
    endloop
  endfacet
  facet normal 0 0 -1
    outer loop
      vertex 34.0001 3.00051 12
      vertex 8.00016 6.10879e-05 12
      vertex 8.0001 3.00006 12
    endloop
  endfacet
  facet normal 1 -0 0
    outer loop
      vertex 37.5002 0 41.5
      vertex 37.5002 0.00057596 8.5
      vertex 37.5002 0.00057596 41.5
    endloop
  endfacet
  facet normal 1 0 0
    outer loop
      vertex 37.5002 0.00057596 8.5
      vertex 37.5002 0 41.5
      vertex 37.5002 0 8.5
    endloop
  endfacet
  facet normal -1 0 0
    outer loop
      vertex 4.50016 0 8.5
      vertex 4.50016 1.37078e-09 41.5
      vertex 4.50016 1.37078e-09 8.5
    endloop
  endfacet
  facet normal -1 -0 0
    outer loop
      vertex 4.50016 1.37078e-09 41.5
      vertex 4.50016 0 8.5
      vertex 4.50016 0 41.5
    endloop
  endfacet
  facet normal -0 0 1
    outer loop
      vertex 4.50016 1.37078e-09 41.5
      vertex 37.5002 0 41.5
      vertex 37.5002 0.00057596 41.5
    endloop
  endfacet
  facet normal 0 0 1
    outer loop
      vertex 37.5002 0 41.5
      vertex 4.50016 1.37078e-09 41.5
      vertex 4.50016 0 41.5
    endloop
  endfacet
  facet normal 0 0 -1
    outer loop
      vertex 4.50016 0 8.5
      vertex 37.5002 0.00057596 8.5
      vertex 37.5002 0 8.5
    endloop
  endfacet
  facet normal 0 0 -1
    outer loop
      vertex 37.5002 0.00057596 8.5
      vertex 4.50016 0 8.5
      vertex 4.50016 1.37078e-09 8.5
    endloop
  endfacet
  facet normal 1 -0 0
    outer loop
      vertex 40 -11.7 50
      vertex 40 0 0
      vertex 40 0 50
    endloop
  endfacet
  facet normal 1 0 0
    outer loop
      vertex 40 0 0
      vertex 40 -11.7 50
      vertex 40 -11.7 0
    endloop
  endfacet
  facet normal 0 -1 0
    outer loop
      vertex -2 -11.7 50
      vertex 5.5 -11.7 45
      vertex 7.5 -11.7 50
    endloop
  endfacet
  facet normal 0 -1 0
    outer loop
      vertex -2 -11.7 50
      vertex 5.5 -11.7 5
      vertex 5.5 -11.7 45
    endloop
  endfacet
  facet normal 0 -1 0
    outer loop
      vertex 40 -11.7 0
      vertex 5.5 -11.7 5
      vertex -2 -11.7 0
    endloop
  endfacet
  facet normal 0 -1 0
    outer loop
      vertex -2 -11.7 0
      vertex 5.5 -11.7 5
      vertex -2 -11.7 50
    endloop
  endfacet
  facet normal 0 -1 -0
    outer loop
      vertex 7.5 -11.7 50
      vertex 5.5 -11.7 45
      vertex 7.5 -11.7 45
    endloop
  endfacet
  facet normal 0 -1 0
    outer loop
      vertex 34.5 -11.7 5
      vertex 40 -11.7 50
      vertex 34.5 -11.7 50
    endloop
  endfacet
  facet normal 0 -1 0
    outer loop
      vertex 34.5 -11.7 5
      vertex 40 -11.7 0
      vertex 40 -11.7 50
    endloop
  endfacet
  facet normal 0 -1 0
    outer loop
      vertex 5.5 -11.7 5
      vertex 40 -11.7 0
      vertex 34.5 -11.7 5
    endloop
  endfacet
  facet normal 0 1 0
    outer loop
      vertex 4.50016 0 41.5
      vertex 40 0 50
      vertex 37.5002 0 41.5
    endloop
  endfacet
  facet normal 0 1 0
    outer loop
      vertex 40 0 50
      vertex 37.5002 0 8.5
      vertex 37.5002 0 41.5
    endloop
  endfacet
  facet normal 0 1 0
    outer loop
      vertex 37.5002 0 8.5
      vertex 40 0 0
      vertex 4.50016 0 8.5
    endloop
  endfacet
  facet normal 0 1 -0
    outer loop
      vertex 40 0 0
      vertex 37.5002 0 8.5
      vertex 40 0 50
    endloop
  endfacet
  facet normal 0 1 0
    outer loop
      vertex 40 0 50
      vertex 4.50016 0 41.5
      vertex -2 0 50
    endloop
  endfacet
  facet normal 0 1 -0
    outer loop
      vertex 4.50016 0 8.5
      vertex -2 0 50
      vertex 4.50016 0 41.5
    endloop
  endfacet
  facet normal 0 1 0
    outer loop
      vertex 4.50016 0 8.5
      vertex -2 0 0
      vertex -2 0 50
    endloop
  endfacet
  facet normal 0 1 0
    outer loop
      vertex -2 0 0
      vertex 4.50016 0 8.5
      vertex 40 0 0
    endloop
  endfacet
  facet normal -1 0 0
    outer loop
      vertex -2 -11.7 0
      vertex -2 0 50
      vertex -2 0 0
    endloop
  endfacet
  facet normal -1 -0 0
    outer loop
      vertex -2 0 50
      vertex -2 -11.7 0
      vertex -2 -11.7 50
    endloop
  endfacet
  facet normal 0 0 1
    outer loop
      vertex 40 0 50
      vertex 38.5 -3 50
      vertex 40 -11.7 50
    endloop
  endfacet
  facet normal 0 0 1
    outer loop
      vertex 40 0 50
      vertex 3.5 -3 50
      vertex 38.5 -3 50
    endloop
  endfacet
  facet normal 0 0 1
    outer loop
      vertex -2 -11.7 50
      vertex 3.5 -3 50
      vertex -2 0 50
    endloop
  endfacet
  facet normal -0 0 1
    outer loop
      vertex -2 0 50
      vertex 3.5 -3 50
      vertex 40 0 50
    endloop
  endfacet
  facet normal -0 0 1
    outer loop
      vertex 38.5 -10.2 50
      vertex 40 -11.7 50
      vertex 38.5 -3 50
    endloop
  endfacet
  facet normal 0 0 1
    outer loop
      vertex 34.5 -11.7 50
      vertex 38.5 -10.2 50
      vertex 34.5 -10.2 50
    endloop
  endfacet
  facet normal 0 0 1
    outer loop
      vertex 38.5 -10.2 50
      vertex 34.5 -11.7 50
      vertex 40 -11.7 50
    endloop
  endfacet
  facet normal -0 0 1
    outer loop
      vertex 3.5 -10.2 50
      vertex 7.5 -11.7 50
      vertex 7.5 -10.2 50
    endloop
  endfacet
  facet normal 0 0 1
    outer loop
      vertex 3.5 -10.2 50
      vertex -2 -11.7 50
      vertex 7.5 -11.7 50
    endloop
  endfacet
  facet normal 0 0 1
    outer loop
      vertex 3.5 -3 50
      vertex -2 -11.7 50
      vertex 3.5 -10.2 50
    endloop
  endfacet
  facet normal 0 0 -1
    outer loop
      vertex -2 -11.7 0
      vertex 40 0 0
      vertex 40 -11.7 0
    endloop
  endfacet
  facet normal -0 0 -1
    outer loop
      vertex 40 0 0
      vertex -2 -11.7 0
      vertex -2 0 0
    endloop
  endfacet
  facet normal -1 0 0
    outer loop
      vertex 38.5 -10.2 5
      vertex 38.5 -3 50
      vertex 38.5 -3 5
    endloop
  endfacet
  facet normal -1 -0 0
    outer loop
      vertex 38.5 -3 50
      vertex 38.5 -10.2 5
      vertex 38.5 -10.2 50
    endloop
  endfacet
  facet normal 0 1 0
    outer loop
      vertex 38.5 -10.2 50
      vertex 37 -10.2 49.6459
      vertex 34.5 -10.2 50
    endloop
  endfacet
  facet normal 0 1 0
    outer loop
      vertex 38.5 -10.2 50
      vertex 37 -10.2 46.3541
      vertex 37 -10.2 49.6459
    endloop
  endfacet
  facet normal 0 1 -0
    outer loop
      vertex 38.5 -10.2 5
      vertex 37 -10.2 46.3541
      vertex 38.5 -10.2 50
    endloop
  endfacet
  facet normal 0 1 0
    outer loop
      vertex 34.5 -10.2 5
      vertex 37 -10.2 46.3541
      vertex 38.5 -10.2 5
    endloop
  endfacet
  facet normal 0 1 0
    outer loop
      vertex 37 -10.2 46.3541
      vertex 34.5 -10.2 5
      vertex 34.5 -10.2 46.3541
    endloop
  endfacet
  facet normal 0 1 0
    outer loop
      vertex 34.5 -10.2 50
      vertex 37 -10.2 49.6459
      vertex 34.5 -10.2 49.6459
    endloop
  endfacet
  facet normal 0 1 0
    outer loop
      vertex 7.5 -10.2 50
      vertex 6 -10.2 49.6459
      vertex 3.5 -10.2 50
    endloop
  endfacet
  facet normal 0 1 0
    outer loop
      vertex 7.5 -10.2 50
      vertex 6 -10.2 46.3541
      vertex 6 -10.2 49.6459
    endloop
  endfacet
  facet normal 0 1 0
    outer loop
      vertex 5.5 -10.2 45
      vertex 6 -10.2 46.3541
      vertex 7.5 -10.2 45
    endloop
  endfacet
  facet normal 0 1 -0
    outer loop
      vertex 7.5 -10.2 45
      vertex 6 -10.2 46.3541
      vertex 7.5 -10.2 50
    endloop
  endfacet
  facet normal 0 1 0
    outer loop
      vertex 3.5 -10.2 50
      vertex 6 -10.2 49.6459
      vertex 3.5 -10.2 49.6459
    endloop
  endfacet
  facet normal 0 1 -0
    outer loop
      vertex 3 -10.2 46.3541
      vertex 1.5 -10.2 49
      vertex 3 -10.2 49
    endloop
  endfacet
  facet normal 0 1 0
    outer loop
      vertex 6 -10.2 46.3541
      vertex 5.5 -10.2 45
      vertex 3 -10.2 46.3541
    endloop
  endfacet
  facet normal 0 1 0
    outer loop
      vertex 1.5 -10.2 5
      vertex 5.5 -10.2 45
      vertex 5.5 -10.2 5
    endloop
  endfacet
  facet normal 0 1 0
    outer loop
      vertex 5.5 -10.2 45
      vertex 1.5 -10.2 5
      vertex 3 -10.2 46.3541
    endloop
  endfacet
  facet normal 0 1 0
    outer loop
      vertex 3 -10.2 46.3541
      vertex 1.5 -10.2 5
      vertex 1.5 -10.2 49
    endloop
  endfacet
  facet normal 0 -1 0
    outer loop
      vertex 1.5 -3 49
      vertex 3 -3 46.3541
      vertex 3 -3 49
    endloop
  endfacet
  facet normal 0 -1 0
    outer loop
      vertex 1.5 -3 5
      vertex 6 -3 46.3541
      vertex 3 -3 46.3541
    endloop
  endfacet
  facet normal 0 -1 -0
    outer loop
      vertex 6 -3 46.3541
      vertex 1.5 -3 5
      vertex 34 -3 46.3541
    endloop
  endfacet
  facet normal 0 -1 0
    outer loop
      vertex 38.5 -3 5
      vertex 34 -3 46.3541
      vertex 1.5 -3 5
    endloop
  endfacet
  facet normal 0 -1 0
    outer loop
      vertex 1.5 -3 5
      vertex 3 -3 46.3541
      vertex 1.5 -3 49
    endloop
  endfacet
  facet normal 0 -1 0
    outer loop
      vertex 6 -3 46.3541
      vertex 34 -3 49.6459
      vertex 6 -3 49.6459
    endloop
  endfacet
  facet normal 0 -1 -0
    outer loop
      vertex 34 -3 49.6459
      vertex 6 -3 46.3541
      vertex 34 -3 46.3541
    endloop
  endfacet
  facet normal 0 -1 0
    outer loop
      vertex 6 -3 49.6459
      vertex 3.5 -3 50
      vertex 3.5 -3 49.6459
    endloop
  endfacet
  facet normal 0 -1 0
    outer loop
      vertex 34 -3 49.6459
      vertex 3.5 -3 50
      vertex 6 -3 49.6459
    endloop
  endfacet
  facet normal 0 -1 0
    outer loop
      vertex 3.5 -3 50
      vertex 34 -3 49.6459
      vertex 38.5 -3 50
    endloop
  endfacet
  facet normal 0 -1 0
    outer loop
      vertex 37 -3 49.6459
      vertex 38.5 -3 50
      vertex 34 -3 49.6459
    endloop
  endfacet
  facet normal 0 -1 0
    outer loop
      vertex 37 -3 46.3541
      vertex 38.5 -3 50
      vertex 37 -3 49.6459
    endloop
  endfacet
  facet normal 0 -1 0
    outer loop
      vertex 37 -3 46.3541
      vertex 38.5 -3 5
      vertex 38.5 -3 50
    endloop
  endfacet
  facet normal 0 -1 0
    outer loop
      vertex 34 -3 46.3541
      vertex 38.5 -3 5
      vertex 37 -3 46.3541
    endloop
  endfacet
  facet normal 1 0 0
    outer loop
      vertex 3.5 -3 50
      vertex 3.5 -3.12181 49.0433
      vertex 3.5 -3 49.6459
    endloop
  endfacet
  facet normal 1 0 0
    outer loop
      vertex 3.5 -3.12181 49.0433
      vertex 3.5 -10.0739 49
      vertex 3.5 -3.12615 49
    endloop
  endfacet
  facet normal 1 0 0
    outer loop
      vertex 3.5 -10.0782 49.0433
      vertex 3.5 -3.12181 49.0433
      vertex 3.5 -3 50
    endloop
  endfacet
  facet normal 1 0 0
    outer loop
      vertex 3.5 -3.12181 49.0433
      vertex 3.5 -10.0782 49.0433
      vertex 3.5 -10.0739 49
    endloop
  endfacet
  facet normal 1 -0 0
    outer loop
      vertex 3.5 -10.2 50
      vertex 3.5 -10.0782 49.0433
      vertex 3.5 -3 50
    endloop
  endfacet
  facet normal 1 0 0
    outer loop
      vertex 3.5 -10.0782 49.0433
      vertex 3.5 -10.2 50
      vertex 3.5 -10.2 49.6459
    endloop
  endfacet
  facet normal 0 0 1
    outer loop
      vertex 38.5 -3 5
      vertex 34.5 -10.2 5
      vertex 38.5 -10.2 5
    endloop
  endfacet
  facet normal 0 0 1
    outer loop
      vertex 34.5 -10.2 5
      vertex 5.5 -10.2 5
      vertex 34.5 -11.7 5
    endloop
  endfacet
  facet normal 0 0 1
    outer loop
      vertex 38.5 -3 5
      vertex 5.5 -10.2 5
      vertex 34.5 -10.2 5
    endloop
  endfacet
  facet normal -0 0 1
    outer loop
      vertex 1.5 -3 5
      vertex 5.5 -10.2 5
      vertex 38.5 -3 5
    endloop
  endfacet
  facet normal 0 0 1
    outer loop
      vertex 5.5 -10.2 5
      vertex 1.5 -3 5
      vertex 1.5 -10.2 5
    endloop
  endfacet
  facet normal 0 0 1
    outer loop
      vertex 34.5 -11.7 5
      vertex 5.5 -10.2 5
      vertex 5.5 -11.7 5
    endloop
  endfacet
  facet normal 1 -0 0
    outer loop
      vertex 1.5 -10.2 49
      vertex 1.5 -3 5
      vertex 1.5 -3 49
    endloop
  endfacet
  facet normal 1 0 0
    outer loop
      vertex 1.5 -3 5
      vertex 1.5 -10.2 49
      vertex 1.5 -10.2 5
    endloop
  endfacet
  facet normal 0 0 -1
    outer loop
      vertex 1.5 -10.2 49
      vertex 3 -10.0739 49
      vertex 3 -10.2 49
    endloop
  endfacet
  facet normal -0 0 -1
    outer loop
      vertex 3 -10.0739 49
      vertex 1.5 -10.2 49
      vertex 3 -3.12615 49
    endloop
  endfacet
  facet normal 0 0 -1
    outer loop
      vertex 1.5 -3 49
      vertex 3 -3.12615 49
      vertex 1.5 -10.2 49
    endloop
  endfacet
  facet normal 0 0 -1
    outer loop
      vertex 3 -3.12615 49
      vertex 1.5 -3 49
      vertex 3 -3 49
    endloop
  endfacet
  facet normal 0 0 -1
    outer loop
      vertex 3 -10.0739 49
      vertex 3.5 -3.12615 49
      vertex 3.5 -10.0739 49
    endloop
  endfacet
  facet normal -0 0 -1
    outer loop
      vertex 3.5 -3.12615 49
      vertex 3 -10.0739 49
      vertex 3 -3.12615 49
    endloop
  endfacet
  facet normal -1 0 0
    outer loop
      vertex 34.5 -10.2 5
      vertex 34.5 -10.2165 46.2727
      vertex 34.5 -10.2 46.3541
    endloop
  endfacet
  facet normal -1 0 0
    outer loop
      vertex 34.5 -10.2 5
      vertex 34.5 -10.3 46.0019
      vertex 34.5 -10.2165 46.2727
    endloop
  endfacet
  facet normal -1 0 0
    outer loop
      vertex 34.5 -11.7 50
      vertex 34.5 -10.3 46.0019
      vertex 34.5 -11.7 5
    endloop
  endfacet
  facet normal -1 0 0
    outer loop
      vertex 34.5 -11.7 5
      vertex 34.5 -10.3 46.0019
      vertex 34.5 -10.2 5
    endloop
  endfacet
  facet normal -1 0 0
    outer loop
      vertex 34.5 -10.2165 49.7273
      vertex 34.5 -10.2 50
      vertex 34.5 -10.2 49.6459
    endloop
  endfacet
  facet normal -1 0 0
    outer loop
      vertex 34.5 -10.3 49.9981
      vertex 34.5 -10.2 50
      vertex 34.5 -10.2165 49.7273
    endloop
  endfacet
  facet normal -1 0 0
    outer loop
      vertex 34.5 -10.3 49.9981
      vertex 34.5 -11.7 50
      vertex 34.5 -10.2 50
    endloop
  endfacet
  facet normal -1 0 0
    outer loop
      vertex 34.5 -10.3 46.0019
      vertex 34.5 -11.7 50
      vertex 34.5 -10.3 49.9981
    endloop
  endfacet
  facet normal 1 -0 0
    outer loop
      vertex 7.5 -11.7 50
      vertex 7.5 -10.2 45
      vertex 7.5 -10.2 50
    endloop
  endfacet
  facet normal 1 0 0
    outer loop
      vertex 7.5 -10.2 45
      vertex 7.5 -11.7 50
      vertex 7.5 -11.7 45
    endloop
  endfacet
  facet normal 1 -0 0
    outer loop
      vertex 5.5 -11.7 45
      vertex 5.5 -10.2 5
      vertex 5.5 -10.2 45
    endloop
  endfacet
  facet normal 1 0 0
    outer loop
      vertex 5.5 -10.2 5
      vertex 5.5 -11.7 45
      vertex 5.5 -11.7 5
    endloop
  endfacet
  facet normal 0 0 -1
    outer loop
      vertex 5.5 -11.7 45
      vertex 7.5 -10.2 45
      vertex 7.5 -11.7 45
    endloop
  endfacet
  facet normal -0 0 -1
    outer loop
      vertex 7.5 -10.2 45
      vertex 5.5 -11.7 45
      vertex 5.5 -10.2 45
    endloop
  endfacet
endsolid OpenSCAD_Model
