solid OpenSCAD_Model
  facet normal 0 0 -1
    outer loop
      vertex -19 0 0
      vertex -20 0 0
      vertex -18 10 0
    endloop
  endfacet
  facet normal 0 -0 -1
    outer loop
      vertex 3.82253 29.6786 0
      vertex 4.76221 29.3366 0
      vertex 0.402313 20.2817 0
    endloop
  endfacet
  facet normal 0 0 -1
    outer loop
      vertex -19 0 0
      vertex -18 10 0
      vertex -17 10 0
    endloop
  endfacet
  facet normal 0 0 -1
    outer loop
      vertex -17 10 0
      vertex -18 10 0
      vertex -18 19.01 0
    endloop
  endfacet
  facet normal 0 0 -1
    outer loop
      vertex 0 10 0
      vertex 0.402313 20.2817 0
      vertex 1 19 0
    endloop
  endfacet
  facet normal 0 0 -1
    outer loop
      vertex 0 0 0
      vertex 0 10 0
      vertex 1 0 0
    endloop
  endfacet
  facet normal 0 0 -1
    outer loop
      vertex 1 0 0
      vertex 0 10 0
      vertex 1 19 0
    endloop
  endfacet
  facet normal 0 0 -1
    outer loop
      vertex -25.3114 28.5766 0
      vertex -24.0297 29.1742 0
      vertex -14.976 24.8148 0
    endloop
  endfacet
  facet normal 0 0 -1
    outer loop
      vertex -17 10 0
      vertex -18 19.01 0
      vertex 0.402313 20.2817 0
    endloop
  endfacet
  facet normal 0 0 -1
    outer loop
      vertex -17 10 0
      vertex 0.402313 20.2817 0
      vertex 0 10 0
    endloop
  endfacet
  facet normal 0 0 -1
    outer loop
      vertex 0.402313 20.2817 0
      vertex 4.76221 29.3366 0
      vertex 1 19 0
    endloop
  endfacet
  facet normal -0 0 -1
    outer loop
      vertex -20.6095 38.5712 0
      vertex -24.0297 29.1742 0
      vertex -21.5492 38.9132 0
    endloop
  endfacet
  facet normal 0 0 -1
    outer loop
      vertex -21.5492 38.9132 0
      vertex -24.0297 29.1742 0
      vertex -25.3114 28.5766 0
    endloop
  endfacet
  facet normal 0 0 -1
    outer loop
      vertex -18 19.01 0
      vertex -14.976 24.8148 0
      vertex 0.402313 20.2817 0
    endloop
  endfacet
  facet normal 0 0 -1
    outer loop
      vertex -14.976 24.8148 0
      vertex -24.0297 29.1742 0
      vertex 0.402313 20.2817 0
    endloop
  endfacet
  facet normal 0 0 1
    outer loop
      vertex -18 10 30
      vertex -20 0 30
      vertex -19 0 30
    endloop
  endfacet
  facet normal 0 0 1
    outer loop
      vertex 0.402313 20.2817 30
      vertex 4.76221 29.3366 30
      vertex 3.82253 29.6786 30
    endloop
  endfacet
  facet normal 0 0 1
    outer loop
      vertex -17 10 30
      vertex -18 10 30
      vertex -19 0 30
    endloop
  endfacet
  facet normal 0 0 1
    outer loop
      vertex -18 19.01 30
      vertex -18 10 30
      vertex -17 10 30
    endloop
  endfacet
  facet normal 0 0 1
    outer loop
      vertex 1 19 30
      vertex 0.402313 20.2817 30
      vertex 0 10 30
    endloop
  endfacet
  facet normal 0 0 1
    outer loop
      vertex 1 0 30
      vertex 0 10 30
      vertex 0 0 30
    endloop
  endfacet
  facet normal 0 0 1
    outer loop
      vertex 1 19 30
      vertex 0 10 30
      vertex 1 0 30
    endloop
  endfacet
  facet normal 0 0 1
    outer loop
      vertex -14.976 24.8148 30
      vertex -24.0297 29.1742 30
      vertex -25.3114 28.5766 30
    endloop
  endfacet
  facet normal 0 0 1
    outer loop
      vertex 0.402313 20.2817 30
      vertex -18 19.01 30
      vertex -17 10 30
    endloop
  endfacet
  facet normal 0 -0 1
    outer loop
      vertex 0 10 30
      vertex 0.402313 20.2817 30
      vertex -17 10 30
    endloop
  endfacet
  facet normal 0 -0 1
    outer loop
      vertex 1 19 30
      vertex 4.76221 29.3366 30
      vertex 0.402313 20.2817 30
    endloop
  endfacet
  facet normal 0 0 1
    outer loop
      vertex -21.5492 38.9132 30
      vertex -24.0297 29.1742 30
      vertex -20.6095 38.5712 30
    endloop
  endfacet
  facet normal 0 0 1
    outer loop
      vertex -25.3114 28.5766 30
      vertex -24.0297 29.1742 30
      vertex -21.5492 38.9132 30
    endloop
  endfacet
  facet normal 0 0 1
    outer loop
      vertex 0.402313 20.2817 30
      vertex -14.976 24.8148 30
      vertex -18 19.01 30
    endloop
  endfacet
  facet normal 0 0 1
    outer loop
      vertex 0.402313 20.2817 30
      vertex -24.0297 29.1742 30
      vertex -14.976 24.8148 30
    endloop
  endfacet
  facet normal 0 -1 0
    outer loop
      vertex -19 0 0
      vertex -20 0 30
      vertex -20 0 0
    endloop
  endfacet
  facet normal 0 -1 0
    outer loop
      vertex -19 0 0
      vertex -19 0 30
      vertex -20 0 30
    endloop
  endfacet
  facet normal 0.980581 -0.196116 0
    outer loop
      vertex -17 10 0
      vertex -19 0 30
      vertex -19 0 0
    endloop
  endfacet
  facet normal 0.980581 -0.196116 0
    outer loop
      vertex -17 10 0
      vertex -17 10 30
      vertex -19 0 30
    endloop
  endfacet
  facet normal 0 -1 0
    outer loop
      vertex 0 10 0
      vertex -17 10 30
      vertex -17 10 0
    endloop
  endfacet
  facet normal 0 -1 0
    outer loop
      vertex 0 10 0
      vertex 0 10 30
      vertex -17 10 30
    endloop
  endfacet
  facet normal -1 0 0
    outer loop
      vertex 0 0 0
      vertex 0 10 30
      vertex 0 10 0
    endloop
  endfacet
  facet normal -1 0 0
    outer loop
      vertex 0 0 0
      vertex 0 0 30
      vertex 0 10 30
    endloop
  endfacet
  facet normal 0 -1 0
    outer loop
      vertex 1 0 0
      vertex 0 0 30
      vertex 0 0 0
    endloop
  endfacet
  facet normal 0 -1 0
    outer loop
      vertex 1 0 0
      vertex 1 0 30
      vertex 0 0 30
    endloop
  endfacet
  facet normal 1 0 0
    outer loop
      vertex 1 19 0
      vertex 1 0 30
      vertex 1 0 0
    endloop
  endfacet
  facet normal 1 0 -0
    outer loop
      vertex 1 19 0
      vertex 1 19 30
      vertex 1 0 30
    endloop
  endfacet
  facet normal 0.939693 -0.34202 0
    outer loop
      vertex 4.76221 29.3366 0
      vertex 1 19 30
      vertex 1 19 0
    endloop
  endfacet
  facet normal 0.939693 -0.34202 0
    outer loop
      vertex 4.76221 29.3366 0
      vertex 4.76221 29.3366 30
      vertex 1 19 30
    endloop
  endfacet
  facet normal 0.342006 0.939698 0
    outer loop
      vertex 3.82253 29.6786 0
      vertex 4.76221 29.3366 30
      vertex 4.76221 29.3366 0
    endloop
  endfacet
  facet normal 0.342006 0.939698 -0
    outer loop
      vertex 3.82253 29.6786 0
      vertex 3.82253 29.6786 30
      vertex 4.76221 29.3366 30
    endloop
  endfacet
  facet normal -0.939692 0.342022 0
    outer loop
      vertex 0.402313 20.2817 0
      vertex 3.82253 29.6786 30
      vertex 3.82253 29.6786 0
    endloop
  endfacet
  facet normal -0.939692 0.342022 0
    outer loop
      vertex 0.402313 20.2817 0
      vertex 0.402313 20.2817 30
      vertex 3.82253 29.6786 30
    endloop
  endfacet
  facet normal 0.342019 0.939693 0
    outer loop
      vertex -24.0297 29.1742 0
      vertex 0.402313 20.2817 30
      vertex 0.402313 20.2817 0
    endloop
  endfacet
  facet normal 0.342019 0.939693 -0
    outer loop
      vertex -24.0297 29.1742 0
      vertex -24.0297 29.1742 30
      vertex 0.402313 20.2817 30
    endloop
  endfacet
  facet normal 0.939694 -0.342018 0
    outer loop
      vertex -20.6095 38.5712 0
      vertex -24.0297 29.1742 30
      vertex -24.0297 29.1742 0
    endloop
  endfacet
  facet normal 0.939694 -0.342018 0
    outer loop
      vertex -20.6095 38.5712 0
      vertex -20.6095 38.5712 30
      vertex -24.0297 29.1742 30
    endloop
  endfacet
  facet normal 0.342 0.9397 0
    outer loop
      vertex -21.5492 38.9132 0
      vertex -20.6095 38.5712 30
      vertex -20.6095 38.5712 0
    endloop
  endfacet
  facet normal 0.342 0.9397 -0
    outer loop
      vertex -21.5492 38.9132 0
      vertex -21.5492 38.9132 30
      vertex -20.6095 38.5712 30
    endloop
  endfacet
  facet normal -0.939693 0.342019 0
    outer loop
      vertex -25.3114 28.5766 0
      vertex -21.5492 38.9132 30
      vertex -21.5492 38.9132 0
    endloop
  endfacet
  facet normal -0.939693 0.342019 0
    outer loop
      vertex -25.3114 28.5766 0
      vertex -25.3114 28.5766 30
      vertex -21.5492 38.9132 30
    endloop
  endfacet
  facet normal -0.342022 -0.939692 0
    outer loop
      vertex -14.976 24.8148 0
      vertex -25.3114 28.5766 30
      vertex -25.3114 28.5766 0
    endloop
  endfacet
  facet normal -0.342022 -0.939692 0
    outer loop
      vertex -14.976 24.8148 0
      vertex -14.976 24.8148 30
      vertex -25.3114 28.5766 30
    endloop
  endfacet
  facet normal -0.886872 0.462015 0
    outer loop
      vertex -18 19.01 0
      vertex -14.976 24.8148 30
      vertex -14.976 24.8148 0
    endloop
  endfacet
  facet normal -0.886872 0.462015 0
    outer loop
      vertex -18 19.01 0
      vertex -18 19.01 30
      vertex -14.976 24.8148 30
    endloop
  endfacet
  facet normal -1 0 0
    outer loop
      vertex -18 10 0
      vertex -18 19.01 30
      vertex -18 19.01 0
    endloop
  endfacet
  facet normal -1 0 0
    outer loop
      vertex -18 10 0
      vertex -18 10 30
      vertex -18 19.01 30
    endloop
  endfacet
  facet normal -0.980581 0.196116 0
    outer loop
      vertex -20 0 0
      vertex -18 10 30
      vertex -18 10 0
    endloop
  endfacet
  facet normal -0.980581 0.196116 0
    outer loop
      vertex -20 0 0
      vertex -20 0 30
      vertex -18 10 30
    endloop
  endfacet
endsolid OpenSCAD_Model
